<?xml version="1.0" standalone="no"?>
<!DOCTYPE svg PUBLIC "-//W3C//DTD SVG 20010904//EN"
 "http://www.w3.org/TR/2001/REC-SVG-20010904/DTD/svg10.dtd">
<svg version="1.0" xmlns="http://www.w3.org/2000/svg"
 width="911.000000pt" height="905.000000pt" viewBox="0 0 911.000000 905.000000"
 preserveAspectRatio="xMidYMid meet">

<g transform="translate(0.000000,905.000000) scale(0.100000,-0.100000)"
fill="#000000" stroke="none">
<path d="M0 8884 c0 -144 2 -165 15 -160 8 3 15 1 15 -4 0 -6 -8 -10 -17 -11
-11 0 -13 -3 -5 -6 6 -2 12 -9 12 -14 0 -6 -4 -7 -10 -4 -5 3 -10 2 -10 -4 0
-5 6 -11 13 -14 9 -4 9 -7 0 -18 -15 -15 -18 -216 -4 -238 7 -11 14 -4 30 27
12 23 24 42 26 42 3 0 3 -29 0 -65 -5 -56 -4 -64 10 -59 9 4 15 19 15 40 0 57
27 43 32 -17 3 -27 10 -55 17 -62 9 -9 10 2 6 48 -4 50 -3 55 6 33 6 -16 15
-28 20 -28 5 0 9 -6 9 -13 0 -18 27 -53 35 -46 3 4 -4 23 -16 43 -12 20 -20
39 -17 41 2 3 21 -7 42 -21 53 -37 55 -23 3 20 -31 25 -44 44 -44 61 0 23 1
24 12 8 7 -10 11 -21 9 -25 -3 -5 1 -8 10 -8 8 0 23 -3 33 -6 17 -6 17 -6 1 7
-10 8 -20 34 -23 59 -5 33 -4 41 4 30 6 -8 11 -10 11 -4 0 6 -17 31 -38 55
-22 24 -37 49 -35 56 2 6 -4 14 -14 17 -10 3 -3 4 15 2 23 -2 32 2 32 13 1 12
29 -52 30 -66 0 -2 4 -3 8 -3 5 0 7 13 4 30 -4 28 -3 29 22 17 14 -7 29 -20
32 -30 3 -9 14 -22 25 -27 19 -10 19 -10 2 25 -15 31 -15 37 -3 45 11 7 19 2
29 -18 17 -33 41 -62 53 -62 5 0 2 12 -6 27 -12 24 -12 29 3 40 15 11 15 12 0
13 -19 0 -42 24 -32 33 3 4 15 0 25 -10 25 -22 36 -8 13 17 -16 18 -16 20 -2
20 10 0 17 3 16 8 -1 4 2 17 6 30 6 17 12 21 29 16 17 -6 19 -4 9 7 -10 13 -6
14 24 11 25 -3 34 -1 29 7 -4 6 -13 11 -20 11 -7 0 -21 7 -32 16 -19 15 -18
15 4 11 15 -4 22 0 22 11 0 13 3 12 15 -4 15 -18 15 -18 10 6 -5 22 -2 26 21
28 16 1 38 -8 55 -23 16 -13 36 -22 44 -19 20 8 19 13 -5 34 -20 18 -20 18 2
24 19 5 21 8 8 16 -8 5 -25 10 -37 10 -13 0 -23 5 -23 10 0 6 -7 10 -16 10
-13 0 -14 3 -5 14 14 17 8 22 -42 31 -33 6 -37 11 -37 37 0 25 -3 28 -20 23
-11 -3 -20 -2 -20 3 0 6 -87 10 -220 11 l-220 1 0 -166z m495 26 c1 -10 -2
-17 -6 -14 -4 2 -7 13 -6 24 2 23 10 17 12 -10z m-225 -10 c0 -22 15 -27 23
-7 3 7 6 5 6 -5 1 -10 -6 -18 -14 -18 -8 0 -15 -5 -15 -11 0 -5 -4 -8 -9 -4
-12 7 -11 65 1 65 4 0 8 -9 8 -20z m60 -62 c0 -5 -6 -8 -14 -8 -9 0 -12 7 -9
21 4 16 8 17 14 7 5 -7 9 -16 9 -20z m70 11 c0 -6 -4 -7 -10 -4 -5 3 -10 11
-10 16 0 6 5 7 10 4 6 -3 10 -11 10 -16z m-30 -39 c0 -5 3 -9 8 -9 26 4 42 -3
42 -20 0 -11 -4 -23 -10 -26 -5 -3 -10 -1 -10 4 0 6 -9 11 -20 11 -11 0 -20 5
-20 10 0 6 -10 10 -22 10 -22 1 -23 1 -4 15 23 17 36 19 36 5z m-197 -100 c3
-11 1 -23 -4 -26 -5 -3 -9 6 -9 20 0 31 6 34 13 6z m117 -63 c0 -5 -4 -5 -10
-2 -5 3 -10 14 -10 23 0 15 2 15 10 2 5 -8 10 -19 10 -23z m-190 -7 c0 -5 -2
-10 -4 -10 -3 0 -8 5 -11 10 -3 6 -1 10 4 10 6 0 11 -4 11 -10z m-25 -20 c3
-5 1 -10 -4 -10 -6 0 -11 5 -11 10 0 6 2 10 4 10 3 0 8 -4 11 -10z m12 -45 c4
-4 2 -5 -4 -1 -7 4 -13 2 -13 -3 0 -6 -4 -11 -10 -11 -5 0 -10 6 -10 14 0 15
24 16 37 1z m21 -45 c-5 -22 -33 -24 -35 -2 -1 11 5 18 18 18 12 0 19 -6 17
-16z m12 -34 c0 -21 21 -31 31 -15 7 11 9 10 9 -3 0 -13 -8 -18 -25 -18 -14 0
-25 4 -25 9 0 5 -3 16 -6 25 -3 9 -1 16 5 16 6 0 11 -6 11 -14z m35 -56 c3 -5
1 -10 -4 -10 -6 0 -11 5 -11 10 0 6 2 10 4 10 3 0 8 -4 11 -10z"/>
<path d="M761 9027 c-13 -21 -12 -21 5 -5 10 10 16 20 13 22 -3 3 -11 -5 -18
-17z"/>
<path d="M790 9023 c-8 -15 -16 -32 -19 -37 -2 -5 1 -6 7 -2 7 4 12 14 12 22
0 8 3 14 8 14 4 0 17 3 29 6 17 5 22 0 28 -24 3 -17 14 -37 23 -44 14 -11 15
-11 7 7 -4 11 -10 34 -12 50 -4 28 -3 28 17 -10 11 -22 18 -31 15 -21 -5 16
-3 17 11 5 14 -11 18 -10 30 6 29 39 15 50 -67 53 -74 3 -76 2 -89 -25z"/>
<path d="M1090 9041 c0 -5 7 -14 15 -21 8 -7 12 -16 9 -21 -3 -5 -1 -9 5 -9 5
0 12 6 15 13 3 6 5 1 3 -14 -3 -25 15 -54 27 -42 3 4 6 1 6 -5 0 -31 20 -6 31
39 14 56 15 55 39 -38 12 -48 33 -58 30 -15 -4 53 -2 57 20 37 24 -22 27 -9 3
17 -9 10 -11 18 -5 18 6 0 14 -4 17 -10 15 -24 31 -9 27 25 l-4 35 -119 0
c-65 0 -119 -4 -119 -9z"/>
<path d="M1770 9045 c0 -11 26 -61 35 -67 5 -4 18 3 28 15 17 21 17 21 3 -15
-15 -38 -6 -53 13 -20 9 15 11 14 12 -8 1 -25 1 -24 14 5 11 25 14 27 20 13
12 -29 28 -21 20 10 l-6 27 36 -35 36 -35 -5 29 c-3 16 -10 34 -16 40 -17 17
-11 30 7 15 15 -13 15 -12 4 9 -11 20 -18 22 -106 22 -52 0 -95 -2 -95 -5z"/>
<path d="M9100 7636 l0 -1414 -197 -48 c-109 -25 -324 -77 -478 -114 -154 -37
-304 -73 -332 -80 -46 -10 -52 -15 -48 -33 2 -12 9 -96 15 -187 6 -91 13 -181
16 -201 6 -41 0 -46 -73 -55 -24 -2 -86 -14 -136 -24 -51 -11 -261 -54 -467
-95 -206 -41 -463 -93 -570 -115 -831 -171 -991 -202 -998 -195 -3 3 0 5 7 5
7 0 10 4 7 8 -3 5 -26 10 -52 10 -25 1 -50 5 -55 8 -5 3 -9 0 -9 -5 0 -6 -13
-11 -30 -11 -45 0 -36 17 13 25 70 12 78 14 116 26 20 7 30 14 23 16 -6 3 -10
9 -6 14 4 8 -75 15 -116 10 -35 -5 -86 -22 -105 -36 -17 -14 -18 -18 -6 -37
12 -19 11 -20 -6 -13 -82 35 -333 9 -333 -35 0 -6 4 -8 10 -5 5 3 7 0 5 -7 -4
-10 -31 -12 -116 -10 -65 3 -120 0 -133 -6 -11 -6 -33 -13 -48 -16 -16 -4 -28
-11 -28 -17 0 -6 3 -8 8 -6 4 3 8 -7 9 -23 2 -28 2 -28 -40 -18 -122 28 -298
8 -281 -32 12 -30 22 -80 15 -84 -3 -2 -127 -27 -276 -55 -148 -29 -355 -70
-460 -91 -104 -22 -226 -46 -270 -54 -44 -9 -343 -67 -665 -130 -322 -63 -602
-118 -622 -122 -28 -4 -35 -10 -31 -22 4 -14 3 -14 -5 -3 -9 13 -21 13 -89 -2
-43 -9 -163 -32 -268 -52 -305 -57 -284 -50 -280 -93 2 -20 0 -41 -4 -47 -5
-5 -14 -97 -20 -203 -7 -106 -14 -199 -17 -206 -3 -8 -27 -17 -55 -20 -27 -4
-49 -11 -49 -17 0 -6 8 -8 18 -5 9 3 32 8 50 10 28 3 32 0 32 -19 0 -28 -17
-35 -81 -35 -46 0 -62 11 -39 25 15 9 8 54 -9 60 -9 4 -22 -3 -31 -15 -11 -15
-33 -22 -85 -29 -39 -4 -71 -5 -73 -1 -5 12 -87 -17 -84 -29 1 -6 -2 -11 -8
-11 -5 0 -10 5 -10 10 0 6 -4 10 -8 10 -9 0 -7 -99 2 -108 3 -3 6 2 6 10 0 9
8 18 18 20 15 4 17 0 14 -23 -4 -24 -9 -29 -33 -29 l-29 0 0 78 c0 42 -4 72
-8 66 -4 -6 -22 -10 -41 -9 -19 2 -28 -1 -21 -5 16 -10 -93 -23 -122 -15 -17
5 -19 4 -9 -3 10 -7 -5 -12 -52 -17 -64 -7 -67 -9 -67 -34 1 -24 1 -25 15 -7
7 10 18 15 24 12 5 -4 13 -1 17 5 4 8 9 7 15 -2 7 -11 9 -11 9 -1 0 8 9 11 25
8 13 -3 27 0 31 5 3 6 12 8 20 5 8 -3 14 -2 14 3 0 4 10 7 23 6 12 -1 34 2 50
6 18 5 27 4 27 -4 0 -8 3 -8 12 1 21 21 29 13 26 -25 -3 -35 -5 -37 -68 -59
-36 -12 -60 -23 -54 -23 6 -1 36 8 67 18 48 17 57 18 57 5 0 -20 -12 -23 -100
-28 -41 -3 -111 -9 -155 -15 -44 -6 -141 -18 -215 -26 -74 -8 -234 -26 -355
-39 -121 -14 -257 -28 -302 -32 l-83 -7 0 -632 0 -632 22 -11 23 -11 -22 0
c-20 -1 -23 -6 -23 -41 0 -41 7 -49 27 -29 13 13 73 3 73 -12 0 -5 9 -9 21 -9
11 0 17 -4 14 -10 -4 -6 10 -8 34 -6 26 2 38 0 34 -7 -4 -6 4 -7 21 -3 14 3
26 2 26 -2 0 -11 376 -81 630 -118 63 -9 147 -22 185 -29 39 -8 108 -19 155
-25 46 -6 87 -13 90 -15 5 -3 146 -27 240 -41 25 -4 62 -7 83 -7 20 -1 37 -6
38 -12 0 -5 4 -1 9 10 5 11 9 15 9 8 1 -13 66 -37 80 -29 5 4 12 0 15 -6 5
-10 7 -10 12 0 7 15 31 16 40 0 4 -7 3 -8 -4 -4 -7 4 -12 2 -12 -3 0 -6 12
-11 26 -11 14 0 23 3 20 8 -2 4 13 6 35 4 25 -3 39 -9 39 -18 0 -11 4 -12 19
-2 15 9 25 9 46 0 14 -7 31 -12 38 -11 7 0 3 4 -8 9 -19 8 -19 9 3 9 16 1 26
-6 29 -19 4 -15 11 -19 32 -14 18 4 22 3 12 -4 -10 -7 -2 -12 30 -17 29 -5 44
-4 47 4 5 16 22 13 22 -4 0 -8 7 -15 16 -15 8 0 12 5 9 10 -4 6 6 10 22 9 23
0 25 -2 9 -8 -19 -7 -19 -8 0 -15 11 -4 20 -3 22 3 2 6 20 10 40 10 31 -2 32
-3 10 -6 -16 -2 -28 -8 -28 -13 0 -7 106 -29 140 -29 8 0 26 -3 39 -7 14 -4
22 -3 18 2 -3 5 3 10 13 10 10 0 16 -4 14 -8 -3 -4 -3 -8 -1 -8 7 0 240 -48
270 -55 21 -6 27 -4 27 9 0 9 4 16 10 16 5 0 7 -7 4 -15 -4 -8 -4 -15 -1 -15
6 0 153 -26 222 -40 154 -29 236 -42 242 -36 3 3 11 2 17 -3 10 -9 99 -25 361
-68 50 -8 99 -16 111 -17 11 -2 27 -7 35 -11 7 -5 31 -12 54 -16 22 -4 78 -15
125 -24 47 -9 121 -18 165 -20 44 -2 87 -6 96 -10 10 -3 20 -2 24 4 4 8 11 6
22 -4 8 -9 23 -13 32 -11 9 3 33 2 53 -3 26 -6 39 -5 42 3 2 6 5 3 5 -6 1 -18
8 -19 96 -22 11 0 23 -4 26 -9 3 -4 20 -9 38 -9 17 -1 34 -5 37 -10 3 -4 8 -6
12 -4 4 2 24 7 44 10 30 5 36 3 32 -9 -7 -17 52 -30 99 -21 23 4 28 3 17 -4
-16 -10 -13 -12 40 -15 19 -2 29 -1 23 2 -22 8 -14 21 9 15 14 -3 19 -2 14 6
-7 11 12 16 31 10 11 -4 10 -32 -2 -40 -6 -5 -4 -8 5 -8 8 -1 51 -7 95 -14 48
-8 89 -10 102 -5 25 9 62 1 44 -10 -5 -4 8 -7 30 -7 21 -1 46 -7 54 -14 10 -9
15 -9 15 -1 0 6 5 11 11 11 5 0 8 -4 4 -10 -5 -9 86 -27 113 -22 6 2 12 -1 12
-7 0 -5 17 -11 38 -14 20 -2 62 -9 92 -16 66 -13 118 -22 145 -23 11 -1 22 -5
25 -9 3 -5 28 -10 55 -13 28 -3 102 -15 165 -27 63 -12 122 -21 130 -21 8 -1
20 -5 26 -9 6 -5 38 -12 70 -15 32 -3 93 -13 134 -21 41 -9 101 -21 133 -27
32 -6 56 -14 52 -17 -3 -4 18 -7 47 -8 29 0 76 -6 103 -13 28 -7 69 -13 92
-13 24 0 43 -3 43 -7 0 -4 13 -6 29 -6 16 1 46 -7 66 -16 20 -10 43 -15 51
-12 8 3 14 2 14 -3 0 -4 16 -8 36 -9 20 -1 45 -4 55 -7 11 -4 19 -2 19 4 0 13
75 4 100 -11 13 -8 13 -8 0 -7 -48 5 -54 -1 -20 -19 21 -11 41 -15 51 -10 14
6 270 -30 334 -48 16 -4 17 -3 5 5 -8 6 -10 11 -5 11 6 0 16 -5 23 -12 6 -6
21 -13 32 -15 17 -2 19 -1 8 11 -7 8 -17 11 -23 8 -5 -3 -4 2 4 11 7 9 23 17
34 17 20 0 20 0 1 -15 -17 -13 -16 -14 20 -8 27 4 37 3 32 -5 -3 -6 2 -13 11
-16 10 -3 1 -4 -19 -1 -21 2 -38 0 -38 -6 0 -5 8 -10 18 -11 62 -5 145 -21
227 -43 33 -9 96 -21 140 -26 44 -5 105 -17 135 -26 30 -8 73 -15 94 -14 24 0
47 -5 57 -15 10 -9 27 -14 38 -11 11 3 37 1 58 -3 21 -4 60 -11 87 -14 27 -3
52 -9 55 -14 10 -14 43 -29 84 -36 21 -4 46 -10 55 -12 11 -4 8 2 -8 17 l-25
22 30 -6 c17 -4 64 -12 105 -20 41 -7 91 -21 110 -29 47 -22 91 -33 70 -19
-12 8 -5 11 28 12 64 3 66 3 74 14 5 6 8 4 8 -6 0 -8 -6 -21 -12 -28 -7 -7 -8
-11 -3 -10 6 2 20 0 33 -5 17 -6 22 -15 22 -40 0 -31 -2 -32 -32 -30 -70 7
-94 12 -132 28 -22 9 -67 19 -100 22 -34 3 -88 9 -120 14 -33 5 -70 7 -83 4
-15 -4 -31 0 -43 11 -10 9 -24 14 -30 10 -6 -4 -18 -1 -26 6 -8 6 -17 9 -21 6
-3 -4 -12 -2 -20 5 -7 6 -51 12 -97 13 -53 2 -96 9 -119 20 -20 9 -40 14 -46
11 -5 -3 -11 -1 -13 5 -3 8 -10 5 -21 -6 -10 -9 -21 -15 -24 -11 -3 3 -13 0
-21 -7 -13 -10 -14 -8 -7 12 l7 23 -70 -7 c-58 -5 -77 -3 -110 13 -29 14 -44
16 -51 9 -8 -8 -11 -7 -11 2 0 8 -6 11 -16 7 -15 -6 -15 -4 -3 10 13 16 11 17
-23 11 -40 -6 -80 1 -73 13 3 5 -5 6 -17 2 -21 -5 -22 -4 -9 11 12 15 11 17
-3 17 -9 0 -16 -4 -16 -10 0 -17 -38 -11 -43 8 -4 16 -5 16 -6 0 -1 -11 -6
-15 -16 -12 -10 4 -13 13 -9 27 5 17 3 19 -20 15 -14 -3 -26 -1 -26 3 0 5 -13
9 -30 9 -22 0 -28 -4 -24 -15 5 -11 2 -14 -12 -9 -11 4 -23 12 -29 19 -17 20
-75 36 -95 25 -15 -8 -23 -4 -42 18 -18 21 -31 28 -51 25 -21 -3 -27 1 -27 14
0 11 -3 14 -8 7 -4 -6 -27 -11 -51 -10 -36 1 -47 -3 -56 -20 -11 -22 -35 -21
-35 1 0 8 -8 19 -17 24 -10 6 -12 11 -5 11 6 0 12 5 12 10 0 17 -52 11 -65 -7
-8 -11 -18 -14 -31 -8 -17 7 -18 8 -1 12 28 7 19 23 -14 23 -19 0 -28 -4 -23
-11 7 -12 -36 -2 -46 10 -3 3 -21 7 -40 8 -19 1 -36 6 -38 12 -4 13 -59 15
-66 2 -3 -5 -40 0 -83 9 -43 10 -81 16 -86 13 -4 -2 -19 3 -33 12 -13 9 -29
13 -34 10 -5 -3 -11 -1 -15 5 -8 13 -75 13 -75 -1 0 -5 -5 -7 -10 -4 -6 4 -8
10 -6 14 3 4 -16 7 -42 6 -26 0 -51 6 -57 12 -8 10 -16 10 -37 -1 -26 -14 -28
-13 -28 5 0 11 -5 17 -10 14 -6 -4 -7 -11 -4 -17 4 -6 -1 -8 -15 -3 -12 4 -21
2 -21 -4 0 -6 -12 -10 -27 -10 -18 1 -22 3 -10 6 24 6 16 28 -11 29 -12 1 -34
3 -49 4 l-28 2 25 8 c24 8 23 8 -8 9 -20 1 -31 -3 -27 -9 3 -5 2 -10 -3 -10
-6 0 -12 6 -15 13 -3 7 -31 19 -63 26 -33 7 -67 17 -76 22 -10 5 -18 5 -20 0
-2 -6 -30 -4 -67 4 -35 7 -70 11 -76 9 -7 -3 -40 5 -74 16 -33 12 -67 20 -74
17 -6 -2 -17 3 -23 12 -10 13 -14 13 -28 2 -12 -10 -16 -11 -16 -1 0 9 -3 10
-14 1 -10 -8 -21 -8 -41 -1 -15 6 -30 8 -35 5 -5 -3 -11 -1 -14 4 -4 5 2 11
11 13 15 3 14 5 -4 10 -16 4 -23 2 -23 -8 0 -12 -9 -14 -42 -9 -24 4 -60 6
-80 5 -41 -1 -53 21 -22 38 15 8 15 10 -1 16 -22 8 -46 -11 -38 -30 4 -11 0
-12 -18 -5 -16 6 -23 16 -22 30 2 16 -3 21 -20 21 -13 0 -49 7 -81 15 -64 17
-81 13 -50 -10 22 -17 7 -19 -31 -5 -23 9 -25 13 -14 26 7 8 8 14 3 12 -5 -1
-19 4 -32 11 -13 7 -30 10 -39 7 -8 -4 -34 -1 -56 5 -34 9 -43 8 -53 -5 -6 -9
-15 -16 -19 -16 -4 0 -2 7 5 15 7 8 9 15 4 16 -41 2 -104 12 -128 20 -46 15
-66 11 -66 -11 0 -18 -3 -19 -22 -9 -13 7 -41 18 -63 25 -22 6 -39 17 -38 23
4 15 -40 7 -45 -7 -2 -7 -19 -12 -38 -12 -26 0 -32 3 -27 16 8 21 -14 34 -58
34 -20 0 -39 3 -43 7 -3 4 -28 9 -54 11 -26 2 -48 7 -50 12 -2 4 -11 6 -21 3
-10 -3 -35 0 -54 5 -32 9 -37 8 -43 -10 -4 -14 -9 -17 -14 -9 -4 7 -26 15 -49
18 -26 4 -41 11 -41 20 0 10 -6 12 -21 8 -14 -5 -19 -3 -15 3 3 6 -7 13 -25
17 -23 5 -34 3 -45 -12 -13 -17 -14 -17 -7 2 6 19 5 19 -18 -2 -25 -23 -74
-22 -66 1 6 17 38 20 48 4 7 -10 9 -10 9 3 0 10 -11 19 -28 22 -15 3 -51 11
-81 17 -46 10 -56 9 -71 -5 -13 -12 -23 -14 -37 -7 -10 5 -34 9 -55 7 -30 -1
-38 2 -47 22 -12 26 -54 34 -44 7 5 -14 -2 -15 -48 -11 -71 5 -88 13 -82 38 4
15 0 19 -18 18 -13 0 -18 -3 -12 -6 7 -2 13 -11 13 -18 0 -10 -12 -12 -47 -9
-27 3 -67 4 -90 4 -24 -1 -43 4 -43 10 0 5 -13 10 -28 10 -16 0 -64 9 -107 20
-43 11 -81 16 -84 11 -7 -10 -71 -9 -71 2 0 4 -6 7 -12 7 -7 0 -33 16 -57 35
-52 41 -81 51 -109 36 -26 -14 -28 -14 -46 5 -15 14 -17 14 -22 -1 -6 -14 -8
-12 -18 7 -13 26 -74 38 -86 18 -6 -9 -16 -6 -38 10 -17 13 -38 20 -46 17 -9
-4 -16 -2 -16 3 0 5 -8 8 -17 8 -16 -1 -152 24 -366 68 -76 15 -107 13 -77 -6
13 -9 13 -10 0 -10 -13 0 -13 -1 0 -10 28 -17 -15 -22 -51 -5 -19 8 -24 13
-12 11 14 -2 23 2 26 15 5 20 -7 26 -18 9 -3 -5 -14 -10 -23 -9 -11 0 -12 2
-4 6 19 7 4 23 -23 23 -13 0 -29 -8 -35 -17 -11 -17 -11 -17 -6 0 5 16 2 18
-25 12 -22 -5 -29 -4 -25 4 11 16 -22 25 -39 11 -12 -10 -15 -9 -15 4 0 20
-19 21 -26 2 -3 -8 -13 -12 -25 -9 -16 4 -17 8 -7 14 9 6 6 8 -9 6 -17 -1 -20
-5 -12 -19 7 -13 6 -16 -3 -13 -7 3 -40 9 -73 14 l-60 9 52 1 c54 1 81 15 36
19 -13 1 -30 5 -36 9 -7 4 -19 9 -27 10 -17 3 -90 19 -134 29 -26 6 -29 5 -24
-14 4 -14 2 -19 -8 -15 -7 3 -13 8 -12 11 3 29 -4 34 -37 28 -22 -4 -35 -3
-35 4 0 5 -10 10 -22 10 -19 0 -20 -2 -8 -11 12 -8 11 -10 -5 -7 -11 2 -20 9
-20 15 0 7 -6 18 -12 25 -7 6 -13 9 -13 6 0 -3 -17 -2 -37 2 -24 6 -42 5 -50
-2 -9 -7 -13 -7 -13 0 0 7 -8 8 -22 3 -14 -5 -48 -1 -92 10 -38 10 -73 16 -78
13 -4 -3 -8 -2 -8 3 0 4 -24 8 -53 8 -67 -1 -148 15 -165 32 -7 7 -23 13 -35
13 -12 0 -44 7 -70 15 -47 14 -107 11 -107 -6 0 -5 5 -9 12 -9 6 0 8 -3 4 -7
-4 -5 -13 -1 -19 7 -7 9 -31 16 -60 16 -48 2 -82 18 -71 36 4 6 -8 9 -27 7
-19 -1 -45 3 -59 8 -14 6 -62 13 -107 17 -46 4 -97 11 -114 16 -64 19 -59 95
-59 -1006 l0 -1004 4555 0 4555 0 0 4525 c0 2489 -2 4525 -5 4525 -3 0 -5
-636 -5 -1414z m-153 -2123 c-3 -10 -5 -4 -5 12 0 17 2 24 5 18 2 -7 2 -21 0
-30z m-917 -43 c-6 -11 -15 -20 -20 -20 -14 0 -12 27 3 33 23 10 28 7 17 -13z
m927 -27 c-3 -10 -5 -2 -5 17 0 19 2 27 5 18 2 -10 2 -26 0 -35z m-1037 -2 c0
-13 -9 -20 -30 -23 -34 -5 -36 -2 -13 24 21 23 43 23 43 -1z m-70 -13 c0 -26
-48 -91 -61 -83 -13 8 -11 45 2 45 5 0 7 5 4 11 -8 12 23 49 42 49 7 0 13 -10
13 -22z m210 9 c0 -8 -11 -24 -24 -36 l-24 -23 -5 24 c-3 17 -5 15 -6 -10 0
-18 3 -31 7 -28 4 2 18 -4 31 -13 l24 -18 -44 -7 c-35 -6 -46 -3 -62 13 -19
19 -19 19 3 51 30 43 100 75 100 47z m-280 -23 c0 -17 -10 -17 -33 0 -18 14
-18 14 0 18 23 6 33 0 33 -18z m1307 4 c-3 -8 -6 -5 -6 6 -1 11 2 17 5 13 3
-3 4 -12 1 -19z m-1383 -14 c3 -9 3 -21 -1 -26 -3 -6 -2 -8 4 -5 11 7 80 -40
75 -51 -2 -4 -13 -17 -25 -30 -21 -23 -53 -24 -103 -5 -9 3 -14 -2 -14 -16 0
-15 -6 -21 -22 -21 -21 0 -21 0 3 26 l24 26 -40 -7 -40 -7 35 36 35 37 3 -30
c2 -22 8 -31 20 -30 24 1 70 17 54 18 -8 1 -28 11 -45 23 -23 16 -42 21 -79
19 -38 -2 -48 1 -48 13 0 19 16 21 23 4 3 -9 13 -5 31 12 26 24 28 24 41 7 13
-18 14 -18 27 2 15 25 34 27 42 5z m225 -49 c0 -49 -3 -55 -21 -55 -20 0 -20
1 -5 18 24 27 21 35 -13 30 -31 -5 -31 -4 9 45 23 28 30 20 30 -38z m-449 0
c7 -8 21 -15 31 -15 23 0 26 -32 4 -50 -13 -11 -15 -8 -15 16 l-1 29 -25 -30
c-13 -16 -29 -29 -34 -27 -6 1 -10 -2 -10 -8 0 -21 -2 -25 -17 -42 -9 -10 -22
-18 -30 -18 -23 0 -14 40 17 80 17 21 30 47 30 59 0 25 31 29 50 6z m-92 -15
c-7 -11 -21 -22 -30 -25 -10 -3 -27 -8 -39 -11 -20 -6 -20 -5 -4 19 15 23 31
31 73 36 10 1 10 -3 0 -19z m1579 -32 c-2 -13 -4 -5 -4 17 -1 22 1 32 4 23 2
-10 2 -28 0 -40z m-1110 16 c11 -28 -13 -39 -44 -19 l-28 19 25 7 c38 11 40
10 47 -7z m-599 -6 c-8 -23 -35 -33 -53 -18 -18 15 -8 25 30 28 17 1 25 -3 23
-10z m-113 -32 c18 -13 18 -15 -8 -50 -16 -20 -30 -36 -33 -36 -2 0 -4 23 -4
50 0 53 10 62 45 36z m145 6 c0 -4 -12 -21 -27 -38 -16 -16 -36 -42 -46 -57
-21 -32 -47 -36 -47 -6 0 31 48 88 84 98 17 5 32 10 34 10 1 1 2 -2 2 -7z
m-308 -34 l-22 -22 0 21 c0 12 7 23 18 25 27 6 28 -1 4 -24z m356 13 c26 -22
27 -29 7 -55 -18 -24 -78 -32 -94 -12 -10 12 -7 15 19 21 25 5 30 11 30 36 0
34 7 35 38 10z m202 -6 c0 -8 -4 -15 -9 -15 -13 0 -22 16 -14 24 11 11 23 6
23 -9z m30 -5 c0 -11 -4 -20 -10 -20 -5 0 -10 9 -10 20 0 11 5 20 10 20 6 0
10 -9 10 -20z m-70 -10 c0 -24 -31 -27 -49 -6 -10 11 -8 15 6 19 35 9 43 7 43
-13z m-600 -9 c0 -13 -10 -21 -32 -25 -23 -4 -41 -18 -58 -44 l-25 -37 -3 30
c-2 16 -12 35 -23 43 -23 16 -25 32 -4 32 8 0 15 -7 15 -15 0 -22 15 -18 34 8
15 21 16 21 30 4 14 -18 15 -18 26 2 13 26 40 27 40 2z m104 -23 c-10 -13 -25
-28 -32 -35 -11 -9 -10 -13 7 -23 12 -6 21 -15 21 -20 0 -14 -63 -12 -83 3
-16 11 -16 15 8 47 27 36 46 48 79 49 19 1 19 1 0 -21z m-290 -30 c-3 -4 4 -9
15 -13 10 -3 26 -14 35 -24 15 -17 15 -20 -5 -44 -23 -30 -55 -35 -84 -13 -19
13 -17 15 20 22 24 4 34 9 25 13 -27 11 -60 36 -60 45 0 5 10 20 22 33 21 22
23 23 29 6 4 -10 5 -21 3 -25z m-64 7 c0 -18 -5 -25 -20 -25 -24 0 -25 8 -3
32 21 23 23 23 23 -7z m438 12 c7 -8 7 -18 2 -27 -8 -13 -12 -12 -24 5 -9 11
-16 23 -16 28 0 12 27 8 38 -6z m-188 -21 c0 -16 -7 -27 -21 -31 -30 -10 -34
0 -12 29 23 32 33 33 33 2z m-310 -2 c0 -8 -4 -12 -10 -9 -5 3 -10 10 -10 16
0 5 5 9 10 9 6 0 10 -7 10 -16z m540 -9 c10 -13 9 -15 -9 -15 -12 0 -21 6 -21
15 0 8 4 15 9 15 5 0 14 -7 21 -15z m-680 -15 c-12 -22 -41 -40 -65 -40 -14 0
-14 3 2 24 16 22 28 28 66 35 4 0 3 -8 -3 -19z m73 -1 c8 -12 5 -24 -13 -49
l-23 -32 24 4 c19 2 25 10 27 36 2 17 8 32 14 32 6 0 8 -13 6 -30 -4 -26 -2
-30 16 -28 13 2 22 -3 24 -14 2 -11 -3 -18 -12 -18 -9 0 -16 4 -16 8 0 5 -7 9
-15 9 -8 0 -15 -6 -15 -14 0 -15 -32 -17 -46 -3 -7 7 -16 4 -29 -10 -22 -25
-35 -26 -35 -2 0 15 -3 14 -18 -4 -20 -25 -53 -35 -76 -22 -24 13 -19 28 9 28
21 0 25 5 25 31 l0 30 29 -20 29 -21 26 34 c14 19 26 44 26 56 0 25 27 24 43
-1z m67 -9 c0 -5 -4 -10 -10 -10 -5 0 -10 5 -10 10 0 6 5 10 10 10 6 0 10 -4
10 -10z m70 -15 c0 -15 -6 -25 -14 -25 -8 0 -22 -3 -32 -7 -15 -6 -15 -2 5 25
27 38 41 41 41 7z m-322 3 c-8 -23 -35 -33 -53 -18 -16 14 -16 15 6 21 38 11
51 10 47 -3z m562 -8 c0 -11 -7 -20 -15 -20 -18 0 -19 12 -3 28 16 16 18 15
18 -8z m-60 -4 c0 -22 -19 -30 -35 -16 -22 18 -18 30 10 30 15 0 25 -6 25 -14z
m-608 -13 c24 -21 23 -27 -7 -59 l-25 -27 0 52 c0 55 4 60 32 34z m-58 -8 c-6
-16 -24 -21 -24 -7 0 11 11 22 21 22 5 0 6 -7 3 -15z m-54 -5 c0 -5 -1 -10 -2
-10 -59 -9 -78 -11 -78 -6 0 3 15 10 33 15 43 12 47 13 47 1z m234 -2 c-22
-37 -69 -88 -81 -88 -32 0 8 77 48 93 25 10 40 8 33 -5z m306 -13 c0 -8 -7
-15 -15 -15 -9 0 -12 6 -9 15 4 8 10 15 15 15 5 0 9 -7 9 -15z m-730 -42 c0
-13 -3 -13 -15 -3 -8 7 -12 16 -9 21 8 13 24 1 24 -18z m36 0 c-7 -59 -36 -88
-36 -38 0 14 5 25 10 25 6 0 9 3 9 8 -3 18 2 32 11 32 5 0 8 -12 6 -27z m158
2 c-28 -43 -85 -65 -64 -25 6 11 16 17 22 14 7 -4 8 -3 4 5 -4 7 2 15 16 20
36 15 40 13 22 -14z m-248 -11 c-3 -7 7 -22 21 -34 29 -22 19 -28 -12 -6 -11
7 -39 13 -63 12 -45 -1 -51 4 -26 25 13 10 17 10 24 -2 8 -11 12 -10 25 9 17
23 40 21 31 -4z m320 -9 c15 -13 24 -28 20 -32 -5 -4 -11 -2 -13 5 -3 6 -9 9
-15 6 -11 -7 -28 13 -28 34 0 17 3 16 36 -13z m-166 -15 c0 -14 7 -20 23 -21
12 -1 29 -2 39 -3 29 -2 31 -15 3 -22 -15 -4 -31 -2 -37 4 -8 8 -15 7 -24 -6
-7 -9 -16 -14 -20 -10 -4 4 -1 15 7 24 12 15 11 16 -11 9 -14 -4 -26 -12 -28
-16 -2 -5 -10 -9 -19 -9 -10 0 -3 12 19 34 39 40 48 43 48 16z m-390 -14 c0
-8 -13 -19 -30 -25 -16 -5 -30 -8 -30 -5 0 12 30 34 58 43 1 1 2 -5 2 -13z
m70 5 c0 -5 10 -11 23 -13 15 -2 8 -6 -24 -14 -45 -10 -45 -10 -41 13 4 22 42
35 42 14z m2973 2 c-7 -2 -19 -2 -25 0 -7 3 -2 5 12 5 14 0 19 -2 13 -5z m144
-15 c-3 -8 -6 -5 -6 6 -1 11 2 17 5 13 3 -3 4 -12 1 -19z m-3533 -13 c3 -8 1
-15 -4 -15 -6 0 -10 7 -10 15 0 8 2 15 4 15 2 0 6 -7 10 -15z m250 0 c-7 -17
-30 -20 -39 -6 -4 8 9 15 37 20 4 0 5 -6 2 -14z m350 -11 c3 -8 2 -12 -4 -9
-6 3 -10 10 -10 16 0 14 7 11 14 -7z m-427 -38 c-10 -25 -37 -19 -37 7 0 13 3
27 7 31 11 11 36 -21 30 -38z m123 17 c0 -3 -7 -3 -15 1 -8 3 -15 2 -15 -3 0
-5 -11 -11 -25 -13 -34 -7 -32 8 3 20 25 8 52 6 52 -5z m-248 -15 c-7 -7 -12
-8 -12 -2 0 14 12 26 19 19 2 -3 -1 -11 -7 -17z m-62 -13 c0 -9 -9 -15 -25
-15 -16 0 -25 -6 -25 -15 0 -22 -33 -18 -48 6 -12 19 -11 20 7 14 13 -4 21 -2
21 5 0 7 8 10 20 7 11 -3 23 -1 26 4 8 14 24 10 24 -6z m83 -16 c-6 -6 -19 -9
-29 -6 -17 3 -16 5 6 14 28 12 39 8 23 -8z m-246 -11 c5 14 33 17 33 3 0 -5 3
-16 6 -24 4 -11 -4 -16 -30 -19 -30 -3 -33 -2 -23 11 10 12 8 13 -11 7 -24 -8
-29 3 -10 22 9 9 14 9 21 -1 7 -9 10 -9 14 1z m-57 -14 c0 -8 -4 -12 -10 -9
-5 3 -10 10 -10 16 0 5 5 9 10 9 6 0 10 -7 10 -16z m-26 -24 c10 0 14 -5 11
-11 -4 -6 -13 -8 -21 -5 -7 3 -16 1 -19 -4 -4 -6 -15 -10 -27 -10 -16 0 -18 3
-9 13 6 8 8 17 5 20 -3 3 -3 11 1 17 5 8 12 7 24 -4 10 -9 25 -16 35 -16z
m-86 8 c-6 -17 -36 -34 -45 -24 -4 4 1 14 11 22 24 17 39 18 34 2z m-84 -23
c-4 -10 0 -15 14 -15 36 0 32 -15 -5 -18 -19 -1 -32 2 -28 7 3 5 0 13 -6 17
-8 4 -7 9 2 15 21 13 29 11 23 -6z m4053 -17 c-3 -8 -6 -5 -6 6 -1 11 2 17 5
13 3 -3 4 -12 1 -19z m-4119 -10 c2 -9 -4 -18 -13 -21 -11 -5 -15 0 -15 19 0
28 23 29 28 2z m-118 -8 c0 -11 -7 -20 -15 -20 -13 0 -14 4 -5 20 6 11 13 20
15 20 3 0 5 -9 5 -20z m40 -5 c0 -16 -6 -25 -15 -25 -16 0 -19 9 -9 34 9 25
24 19 24 -9z m-80 -1 c0 -8 -4 -12 -10 -9 -5 3 -10 10 -10 16 0 5 5 9 10 9 6
0 10 -7 10 -16z m-84 -21 c-10 -10 -19 5 -10 18 6 11 8 11 12 0 2 -7 1 -15 -2
-18z m41 7 c-3 -10 0 -21 7 -24 6 -2 7 -5 1 -5 -5 0 -16 3 -24 8 -12 8 -12 12
-2 25 18 21 24 20 18 -4z m-77 -6 c0 -8 -4 -12 -10 -9 -5 3 -10 10 -10 16 0 5
5 9 10 9 6 0 10 -7 10 -16z m-40 -14 c0 -13 -7 -20 -20 -20 -19 0 -19 1 -3 20
10 11 19 20 20 20 2 0 3 -9 3 -20z m-77 -34 c5 -15 6 -30 2 -34 -9 -10 -35 28
-35 51 0 27 22 16 33 -17z m-70 16 c2 7 8 10 12 5 5 -4 4 -12 -2 -18 -8 -8 -6
-17 8 -32 31 -33 22 -76 -9 -45 -9 9 -12 8 -12 -7 0 -16 -7 -12 -38 18 -36 35
-62 47 -62 28 0 -5 7 -14 15 -21 17 -14 20 -50 5 -50 -5 0 -7 7 -4 15 4 9 0
15 -10 15 -10 0 -16 9 -16 23 0 13 -5 28 -12 35 -6 6 -8 15 -3 19 4 5 10 2 12
-4 3 -9 10 -9 28 3 15 10 25 12 30 5 10 -16 25 -13 25 5 0 13 3 14 14 5 11 -9
15 -9 19 1z m187 -2 c0 -5 -7 -10 -15 -10 -8 0 -15 5 -15 10 0 6 7 10 15 10 8
0 15 -4 15 -10z m4407 -12 c-3 -8 -6 -5 -6 6 -1 11 2 17 5 13 3 -3 4 -12 1
-19z m-4481 -15 c8 -11 13 -13 14 -5 0 17 20 15 20 -2 0 -8 7 -17 16 -20 8 -3
12 -10 9 -16 -12 -20 -40 -9 -68 25 -15 19 -23 35 -16 35 6 0 18 -8 25 -17z
m-266 -8 c0 -8 -2 -15 -4 -15 -2 0 -6 7 -10 15 -3 8 -1 15 4 15 6 0 10 -7 10
-15z m-54 -4 c11 9 14 6 14 -20 0 -17 -4 -31 -10 -31 -5 0 -10 5 -10 10 0 6
-11 10 -24 10 -13 0 -29 7 -36 15 -9 10 -9 15 -1 15 6 0 11 -5 11 -12 0 -8 7
-6 17 5 11 10 19 13 21 7 3 -7 8 -7 18 1z m418 3 c13 -5 14 -9 5 -20 -13 -16
-29 -9 -29 12 0 16 2 16 24 8z m56 -14 c0 -5 -4 -10 -9 -10 -6 0 -13 5 -16 10
-3 6 1 10 9 10 9 0 16 -4 16 -10z m-580 -11 c0 21 15 10 32 -23 14 -29 15 -35
2 -40 -8 -3 -14 -12 -14 -21 0 -17 -16 -20 -25 -4 -5 7 -14 4 -26 -7 -16 -15
-19 -15 -19 -2 0 19 -28 44 -37 34 -4 -4 -2 -15 4 -26 10 -14 9 -19 -2 -24 -8
-3 -17 0 -21 6 -4 7 -10 6 -16 -3 -8 -11 -9 -10 -5 3 3 9 -1 24 -8 35 -13 17
-14 17 -15 1 0 -24 -17 -23 -30 1 -14 27 -13 41 5 41 8 0 15 -4 15 -10 0 -5 9
-10 19 -10 11 0 21 -8 23 -17 3 -16 6 -15 16 5 11 19 10 22 -7 22 -23 0 -36
16 -21 25 5 3 10 1 10 -5 0 -7 9 -5 22 4 36 25 48 20 48 -21 0 -33 1 -35 13
-18 8 10 19 15 24 12 6 -4 16 0 23 8 10 13 8 15 -13 15 -26 0 -42 12 -30 24 3
3 12 1 20 -5 9 -9 13 -8 13 0z m620 1 c0 -5 -5 -10 -11 -10 -5 0 -7 5 -4 10 3
6 8 10 11 10 2 0 4 -4 4 -10z m-433 -15 c8 -23 -7 -33 -18 -12 -6 9 -14 15
-20 12 -5 -4 -9 -1 -9 4 0 17 40 13 47 -4z m203 -5 c0 -5 -5 -10 -11 -10 -5 0
-7 5 -4 10 3 6 8 10 11 10 2 0 4 -4 4 -10z m-313 -19 c3 -13 11 -17 24 -14 11
3 19 0 19 -7 0 -7 -7 -10 -15 -6 -9 3 -15 0 -15 -10 0 -8 -5 -12 -11 -9 -6 4
-8 9 -5 12 3 3 -1 12 -9 20 -18 17 -19 33 -4 33 6 0 13 -8 16 -19z m-277 0 c0
-6 -4 -13 -10 -16 -5 -3 -10 1 -10 9 0 9 5 16 10 16 6 0 10 -4 10 -9z m480 -1
c0 -5 -5 -10 -11 -10 -5 0 -7 5 -4 10 3 6 8 10 11 10 2 0 4 -4 4 -10z m-531
-11 c7 11 14 9 35 -15 28 -31 38 -86 12 -65 -11 9 -15 9 -19 -1 -4 -9 -15 -3
-36 20 -30 32 -51 41 -51 23 0 -6 5 -13 10 -16 6 -3 9 -18 9 -33 -1 -17 -3
-21 -6 -9 -7 26 -43 22 -44 -5 0 -13 -3 -17 -6 -10 -4 10 -8 10 -19 1 -8 -6
-23 -9 -34 -6 -11 3 -20 1 -20 -4 0 -5 -5 -9 -11 -9 -8 0 -8 5 1 15 10 12 10
15 -1 15 -33 0 -57 -13 -52 -26 6 -17 -13 -19 -23 -3 -5 8 -10 6 -16 -5 -11
-20 -32 -21 -25 -2 3 8 -1 20 -9 26 -16 14 -19 30 -4 30 6 0 10 -7 10 -17 0
-14 2 -14 20 2 15 14 20 15 20 4 0 -11 2 -11 10 1 7 11 4 17 -10 22 -11 4 -20
12 -20 19 0 6 6 9 14 6 7 -3 19 0 25 6 8 8 11 6 11 -10 0 -11 7 -26 15 -33 12
-10 15 -10 15 0 0 10 5 9 18 -2 9 -9 24 -18 32 -20 21 -7 50 9 50 28 0 10 -5
12 -12 7 -36 -22 -67 1 -43 33 14 18 14 18 15 -3 0 -16 5 -20 20 -16 11 3 27
0 35 -7 12 -10 15 -9 15 7 0 10 -5 24 -12 31 -6 6 -8 15 -3 19 4 5 10 2 12 -4
4 -10 10 -10 26 2 16 11 23 12 29 2 6 -9 10 -9 17 2z m401 -9 c0 -5 -5 -10
-11 -10 -5 0 -7 5 -4 10 3 6 8 10 11 10 2 0 4 -4 4 -10z m30 0 c0 -5 -2 -10
-4 -10 -3 0 -8 5 -11 10 -3 6 -1 10 4 10 6 0 11 -4 11 -10z m-530 -16 c0 -8
-4 -12 -10 -9 -5 3 -10 10 -10 16 0 5 5 9 10 9 6 0 10 -7 10 -16z m-79 -27
c-8 -8 -16 -6 -29 7 -16 18 -16 18 0 13 10 -3 21 -1 25 5 5 9 8 9 11 -1 2 -7
-1 -18 -7 -24z m476 11 c-3 -8 -6 -5 -6 6 -1 11 2 17 5 13 3 -3 4 -12 1 -19z
m4880 -25 c-3 -10 -5 -2 -5 17 0 19 2 27 5 18 2 -10 2 -26 0 -35z m-190 -5
c-3 -7 -5 -2 -5 12 0 14 2 19 5 13 2 -7 2 -19 0 -25z m-5319 -14 c0 -20 5 -41
11 -47 16 -16 13 -27 -7 -27 -11 0 -24 11 -30 25 -12 25 -32 34 -32 14 0 -8
-5 -8 -15 1 -17 14 -20 50 -5 50 6 0 13 -7 16 -15 4 -8 10 -13 14 -10 5 3 13
-2 18 -11 7 -13 11 -14 17 -4 5 8 1 16 -9 22 -9 5 -16 14 -16 21 0 7 4 6 10
-3 8 -12 10 -12 16 3 9 25 12 21 12 -19z m42 26 c0 -5 -4 -10 -10 -10 -5 0
-10 5 -10 10 0 6 5 10 10 10 6 0 10 -4 10 -10z m-150 -35 c-7 -8 -19 -15 -26
-15 -8 0 -14 -7 -14 -17 0 -15 1 -15 18 0 14 13 21 14 30 5 17 -17 15 -48 -3
-49 -8 -1 -21 -2 -27 -3 -7 -1 -16 -5 -20 -11 -4 -5 -10 -6 -14 -2 -4 4 -2 13
4 19 15 15 -12 48 -40 48 -11 0 -18 7 -17 18 0 11 2 12 6 4 4 -10 8 -10 19 -1
7 6 21 9 29 5 8 -3 15 -1 15 5 0 6 7 9 15 6 8 -4 17 -2 21 4 3 6 8 8 11 5 3
-3 0 -12 -7 -21z m440 11 c0 -3 -4 -8 -10 -11 -5 -3 -10 -1 -10 4 0 6 5 11 10
11 6 0 10 -2 10 -4z m2706 -23 c-7 -7 -26 7 -26 19 0 6 6 6 15 -2 9 -7 13 -15
11 -17z m-3276 -3 c0 -5 -2 -10 -4 -10 -3 0 -8 5 -11 10 -3 6 -1 10 4 10 6 0
11 -4 11 -10z m-46 -15 c-4 -8 -1 -15 5 -15 8 0 7 -7 -3 -21 -8 -12 -12 -28
-9 -35 7 -18 -7 -18 -40 -1 -20 10 -23 17 -15 25 7 7 9 15 5 19 -4 3 -14 -2
-22 -13 -17 -23 -19 -34 -5 -34 6 0 10 -5 10 -11 0 -6 -6 -9 -14 -6 -7 3 -17
2 -22 -2 -5 -5 -21 -11 -36 -15 -22 -5 -26 -3 -22 9 4 9 1 15 -7 15 -10 0 -10
3 -1 12 16 16 15 28 -3 28 -8 0 -15 5 -15 10 0 6 3 9 8 9 4 -1 9 -1 12 1 31
12 47 7 58 -18 12 -27 12 -27 7 7 -4 26 -2 32 10 27 8 -3 15 0 16 7 0 9 2 8 6
-1 4 -10 8 -10 19 -1 11 9 14 6 14 -16 0 -23 2 -26 15 -15 8 7 15 21 15 31 0
11 4 19 10 19 5 0 7 -7 4 -15z m408 -7 c-7 -7 -12 -8 -12 -2 0 6 3 14 7 17 3
4 9 5 12 2 2 -3 -1 -11 -7 -17z m5395 -10 c-3 -7 -5 -2 -5 12 0 14 2 19 5 13
2 -7 2 -19 0 -25z m-5738 -5 c10 -17 10 -17 11 1 0 15 3 16 15 6 17 -14 20
-50 4 -50 -5 0 -7 5 -4 10 4 6 -5 10 -19 10 -17 0 -26 6 -26 16 0 9 -5 12 -12
8 -7 -4 -8 -3 -4 4 10 17 23 15 35 -5z m-264 -53 c-4 -6 -10 -8 -15 -5 -5 3
-11 1 -15 -5 -4 -6 5 -10 19 -10 14 0 26 -5 26 -11 0 -6 -7 -9 -15 -5 -8 3
-15 0 -15 -6 0 -7 -5 -6 -15 2 -12 10 -15 10 -15 0 0 -7 -7 -10 -15 -6 -8 3
-15 1 -15 -5 0 -6 -10 -9 -22 -8 -13 2 -29 0 -36 -5 -21 -13 -25 0 -8 32 9 17
13 38 10 46 -4 11 0 16 11 16 11 0 15 -5 11 -15 -8 -22 7 -19 21 4 7 11 23 21
35 23 25 4 63 -26 53 -42z m425 40 c0 -5 -5 -10 -11 -10 -5 0 -7 5 -4 10 3 6
8 10 11 10 2 0 4 -4 4 -10z m-580 -48 c-1 -27 -46 -76 -64 -69 -9 4 -16 1 -17
-6 0 -8 -2 -7 -6 2 -5 11 -7 11 -14 0 -6 -10 -9 -11 -9 -1 0 6 -4 12 -10 12
-5 0 -10 -6 -10 -14 0 -9 -9 -14 -22 -13 -28 2 -61 38 -47 52 5 5 9 14 9 20 0
5 -5 2 -11 -7 -5 -10 -16 -18 -23 -18 -8 0 -17 8 -21 18 -5 13 -3 14 6 5 9 -9
15 -8 26 3 23 22 33 17 33 -18 0 -30 1 -31 15 -12 11 14 14 15 15 4 0 -13 2
-13 9 -1 8 12 12 12 25 2 14 -11 16 -11 16 5 0 17 1 17 14 -2 16 -22 30 -15
20 10 -3 9 -14 16 -24 16 -11 0 -22 5 -25 10 -4 7 3 9 19 6 14 -3 28 0 31 5
13 20 21 7 17 -28 -4 -34 -3 -36 12 -21 9 9 16 28 16 43 0 15 4 24 10 20 6 -3
10 -14 10 -23z m-134 -19 c-3 -3 -13 -2 -23 2 -17 7 -17 8 2 15 19 7 34 -5 21
-17z m444 17 c0 -5 -5 -10 -11 -10 -5 0 -7 5 -4 10 3 6 8 10 11 10 2 0 4 -4 4
-10z m-573 -34 c4 -7 15 -16 23 -19 12 -4 11 -6 -2 -6 -10 -1 -18 -6 -18 -12
0 -5 -4 -7 -10 -4 -5 3 -10 16 -10 28 0 16 -3 18 -12 9 -9 -9 -9 -18 1 -38 6
-15 9 -29 6 -32 -8 -8 -54 -10 -53 -3 3 17 -16 41 -33 41 -10 0 -19 6 -19 13
0 9 -3 8 -9 -2 -5 -8 -11 -9 -15 -3 -3 5 2 13 11 17 10 3 19 1 21 -4 2 -7 10
-4 19 5 13 13 17 13 24 2 7 -11 9 -11 9 0 0 7 4 11 9 7 5 -3 12 -1 16 5 9 14
33 12 42 -4z m62 -58 c1 -5 -8 -8 -19 -8 -17 0 -18 3 -8 26 11 23 13 24 19 7
4 -10 8 -21 8 -25z m-298 -7 c-23 -23 -27 -41 -9 -41 13 0 5 -12 -9 -12 -4 0
-15 -4 -23 -8 -19 -10 -55 14 -45 30 6 9 10 9 16 -1 7 -12 9 -12 9 -1 0 8 -9
16 -20 19 -19 5 -28 22 -12 24 4 0 15 2 25 4 9 2 17 -3 17 -10 0 -8 5 -17 11
-21 9 -5 10 1 5 20 -6 24 -4 26 19 22 15 -3 25 0 26 7 0 9 2 9 5 0 3 -6 -4
-21 -15 -32z m54 -8 c-5 -10 -7 -23 -6 -30 1 -6 -7 -11 -18 -10 -11 0 -17 5
-15 9 3 4 1 8 -5 8 -6 0 -8 7 -5 15 4 8 10 13 14 10 4 -3 13 2 20 10 16 19 25
12 15 -12z m53 15 c9 -9 12 -9 12 1 0 7 5 9 10 6 6 -3 10 -16 9 -28 0 -12 -3
-16 -6 -9 -2 6 -13 12 -23 12 -10 0 -20 7 -24 15 -7 18 5 20 22 3z m-213 -55
c0 -13 -2 -24 -5 -24 -3 -1 -14 -3 -25 -5 -93 -14 -95 -14 -95 0 0 8 5 18 11
22 6 3 9 14 6 24 -3 11 2 21 10 24 10 4 13 2 10 -7 -3 -7 3 -18 13 -25 21 -13
40 2 40 32 0 19 1 19 18 1 9 -10 17 -29 17 -42z m-55 32 c-7 -9 -15 -13 -17
-11 -7 7 7 26 19 26 6 0 6 -6 -2 -15z m-79 -42 c-9 -16 -10 -14 -11 12 0 21 3
26 11 18 8 -8 8 -16 0 -30z m-81 20 c0 -11 -46 -63 -55 -63 -7 0 -22 9 -35 20
-20 17 -20 20 -6 26 9 3 27 7 41 8 14 0 25 4 25 7 0 3 7 6 15 6 8 0 15 -2 15
-4z m40 -22 c0 -6 -4 -12 -10 -16 -5 -3 -7 -12 -3 -20 6 -17 -12 -21 -22 -5
-4 6 -11 8 -16 5 -11 -7 -11 -3 -3 19 3 9 10 14 14 11 5 -3 11 -1 15 5 8 13
25 13 25 1z m-200 -11 c0 -5 -4 -10 -10 -10 -5 0 -10 5 -10 10 0 6 5 10 10 10
6 0 10 -4 10 -10z m34 -6 c10 -27 7 -36 -9 -20 -8 8 -15 19 -15 25 0 17 17 13
24 -5z m177 -21 c-12 -20 -14 -14 -5 12 4 9 9 14 11 11 3 -2 0 -13 -6 -23z
m-290 -20 c-9 -16 -10 -14 -11 12 0 21 3 26 11 18 8 -8 8 -16 0 -30z m640 15
c8 -15 9 -58 5 -142 -10 -187 -16 -226 -34 -226 -12 0 -14 13 -9 86 4 79 4 85
-11 70 -11 -11 -18 -39 -20 -85 -3 -47 -9 -71 -18 -75 -11 -4 -14 5 -14 35 0
24 -4 38 -10 34 -5 -3 -10 -22 -10 -41 0 -26 -4 -34 -17 -34 -16 0 -17 9 -12
97 12 168 11 235 -3 231 -9 -3 -15 -50 -21 -159 -8 -167 -10 -179 -28 -179 -9
0 -10 35 -5 138 11 220 14 239 43 247 43 10 53 -9 53 -101 0 -46 4 -84 9 -84
5 0 10 35 12 78 4 85 25 132 59 132 11 0 24 -10 31 -22z m1900 12 c21 -12 26
-59 7 -78 -9 -9 -9 -18 1 -38 8 -19 9 -30 2 -37 -8 -8 -14 -1 -22 21 -14 41
-39 42 -39 2 0 -16 -4 -30 -10 -30 -6 0 -10 33 -10 79 0 75 1 80 23 84 12 2
23 5 25 6 2 0 12 -4 23 -9z m-2459 -15 c9 4 18 -1 22 -11 9 -23 0 -30 -19 -14
-9 7 -18 10 -22 6 -3 -3 -1 -6 5 -6 7 0 12 -4 12 -8 0 -5 -18 -9 -40 -9 -41
-1 -42 4 -12 39 11 13 19 15 27 8 7 -6 19 -8 27 -5z m77 -8 c8 -10 7 -14 -2
-14 -8 0 -14 6 -14 14 0 7 1 13 2 13 2 0 8 -6 14 -13z m2254 -147 c-3 -3 -10
3 -17 13 -18 23 -41 22 -66 -5 -24 -26 -25 -17 -4 48 38 118 35 117 65 28 14
-43 24 -81 22 -84z m-2033 83 c-3 -32 -11 -68 -18 -80 -9 -17 -10 -29 -2 -42
11 -21 14 -159 4 -185 -3 -9 -12 -16 -19 -16 -9 0 -11 16 -8 64 3 35 2 77 -2
93 l-8 28 -7 -25 c-5 -14 -8 -58 -9 -97 -1 -58 -4 -73 -16 -73 -11 0 -15 12
-16 43 l-1 42 -7 -37 c-10 -47 -29 -70 -55 -66 -19 3 -21 10 -24 91 -2 73 0
87 13 87 12 0 15 -13 15 -65 0 -36 4 -65 9 -65 5 0 12 30 16 66 7 64 6 68 -20
92 -25 22 -27 30 -23 79 5 60 25 87 72 99 26 6 28 5 21 -17 -4 -13 -8 -24 -9
-24 -45 -17 -56 -27 -56 -49 0 -14 11 -36 25 -50 17 -17 26 -38 27 -63 1 -21
4 -2 7 41 4 50 11 81 19 84 7 2 12 -6 12 -20 1 -22 1 -22 15 -4 8 11 15 41 15
67 0 42 7 55 30 58 3 1 3 -25 0 -56z m45 -85 c-10 -181 -17 -230 -34 -236 -12
-4 -13 14 -7 114 12 222 18 264 33 264 13 0 14 -21 8 -142z m1831 92 c0 -19 4
-43 8 -53 12 -25 -19 -67 -49 -67 -25 0 -25 1 -25 81 l0 80 33 -3 c29 -3 32
-6 33 -38z m-393 -80 c20 -69 21 -80 7 -80 -5 0 -10 7 -10 15 0 21 -26 19 -50
-5 -11 -11 -22 -20 -24 -20 -3 0 7 34 21 75 13 41 28 75 32 75 4 0 15 -27 24
-60z m183 30 c8 0 14 -4 14 -10 0 -5 -5 -10 -10 -10 -6 0 -15 -10 -20 -22 -7
-18 -9 -19 -9 -5 -1 9 -8 17 -16 17 -8 0 -15 5 -15 10 0 6 7 10 15 10 9 0 15
10 16 23 1 16 2 18 6 5 2 -10 11 -18 19 -18z m-300 -2 c-3 -13 -6 -47 -6 -75
0 -29 -4 -53 -10 -53 -5 0 -10 14 -10 31 0 26 -3 30 -22 27 -18 -2 -24 -11
-28 -38 -9 -63 -18 -17 -10 55 4 39 8 55 9 38 1 -28 5 -33 26 -33 20 0 25 6
31 35 3 19 11 35 16 35 6 0 8 -10 4 -22z m-1739 6 c-3 -3 -12 -4 -19 -1 -8 3
-5 6 6 6 11 1 17 -2 13 -5z m1595 -74 c-2 -38 -7 -70 -11 -70 -4 0 -18 19 -32
43 l-24 42 -3 -47 c-2 -27 -8 -48 -14 -48 -7 0 -8 14 -4 38 3 20 6 52 6 70 0
40 13 35 40 -16 l19 -37 1 32 c0 17 3 38 6 47 13 34 19 13 16 -54z m-139 -17
c-6 -69 -9 -80 -18 -71 -9 8 7 138 16 138 5 0 6 -30 2 -67z m-63 47 c0 -6 -6
-23 -14 -38 -25 -50 -29 -72 -12 -72 9 0 16 -4 16 -9 0 -10 -24 -21 -46 -21
-13 0 -12 4 33 118 3 7 -3 12 -17 12 -11 0 -18 5 -15 10 8 13 55 13 55 0z
m-116 -16 c20 -20 21 -83 0 -112 -18 -25 -59 -29 -68 -6 -12 32 -5 82 15 108
24 30 32 32 53 10z m-130 -10 c9 -3 16 -11 16 -16 0 -6 -7 -8 -15 -4 -21 8
-45 -21 -45 -53 0 -36 17 -53 42 -40 22 12 24 -3 3 -21 -20 -17 -54 -3 -61 26
-8 30 3 74 23 97 18 20 16 19 37 11z m-1164 -43 c0 -6 -4 -13 -10 -16 -5 -3
-10 1 -10 9 0 9 5 16 10 16 6 0 10 -4 10 -9z m7 -93 c-3 -8 -6 -5 -6 6 -1 11
2 17 5 13 3 -3 4 -12 1 -19z m-317 -212 c-14 -7 -35 -17 -47 -20 -18 -6 -22
-4 -17 8 3 9 10 14 14 11 5 -3 11 -1 15 5 3 5 18 10 33 10 l27 -1 -25 -13z
m80 -6 c0 -11 -4 -20 -10 -20 -5 0 -7 8 -3 18 4 12 -2 10 -18 -8 -13 -14 -25
-38 -26 -53 -1 -37 -4 -38 -56 -44 -35 -4 -45 -2 -50 11 -4 11 -3 15 4 10 7
-4 10 3 7 21 -3 25 2 29 67 56 85 34 85 34 85 9z m-210 -24 c0 -13 -7 -26 -15
-30 -11 -4 -15 1 -15 17 0 18 2 19 10 7 8 -12 10 -11 10 8 0 12 2 22 5 22 3 0
5 -11 5 -24z m975 14 c-16 -5 -113 -16 -215 -25 -102 -8 -230 -20 -285 -25
-106 -10 -181 -13 -174 -6 2 2 65 9 139 16 74 7 218 20 320 30 102 9 199 18
215 18 l30 0 -30 -8z m32 -42 c-3 -7 -5 -2 -5 12 0 14 2 19 5 13 2 -7 2 -19 0
-25z m-980 -30 c-3 -7 -5 -2 -5 12 0 14 2 19 5 13 2 -7 2 -19 0 -25z m252 8
c-2 -2 -31 -6 -64 -10 -41 -4 -55 -3 -45 4 13 9 119 15 109 6z m738 -63 c-3
-10 -5 -4 -5 12 0 17 2 24 5 18 2 -7 2 -21 0 -30z m10 -90 c-3 -10 -5 -2 -5
17 0 19 2 27 5 18 2 -10 2 -26 0 -35z m10 -55 c-3 -8 -6 -5 -6 6 -1 11 2 17 5
13 3 -3 4 -12 1 -19z m-850 -70 c-3 -7 -5 -2 -5 12 0 14 2 19 5 13 2 -7 2 -19
0 -25z m860 -25 c-3 -10 -5 -4 -5 12 0 17 2 24 5 18 2 -7 2 -21 0 -30z m6763
-48 c0 -11 -12 -15 -42 -16 -24 -1 -131 -4 -238 -8 l-195 -6 2 -30 c1 -16 3
-39 4 -50 0 -11 10 -130 20 -265 10 -135 21 -261 24 -280 5 -34 20 -221 31
-385 3 -44 9 -124 13 -178 3 -54 4 -103 0 -109 -4 -6 -10 22 -13 63 -13 174
-57 702 -66 789 -5 52 -12 136 -15 185 -5 88 -11 151 -21 247 l-5 47 98 4
c294 9 403 7 403 -8z m-6753 -37 c-3 -8 -6 -5 -6 6 -1 11 2 17 5 13 3 -3 4
-12 1 -19z m4487 -70 c8 -97 24 -377 36 -623 5 -110 14 -290 20 -400 13 -257
19 -431 14 -380 -3 22 -12 99 -20 170 -13 111 -23 269 -28 418 -1 44 -4 45
-116 50 l-75 3 83 2 82 2 1 58 c1 31 2 91 3 132 1 41 -1 85 -5 96 -7 21 -24
385 -22 467 l1 37 -201 -1 c-208 0 -269 -8 -212 -25 17 -4 50 -9 75 -9 25 0
70 -2 100 -4 51 -3 53 -4 28 -14 -24 -9 -28 -16 -28 -53 l0 -42 -57 -6 c-145
-14 -134 12 -117 -266 7 -129 13 -256 14 -282 0 -29 6 -53 16 -62 8 -9 11 -16
5 -16 -8 0 -9 -93 -5 -312 4 -172 4 -311 2 -308 -3 3 -9 111 -12 240 -10 352
-50 1017 -64 1073 l-7 28 -574 -1 c-316 0 -573 1 -570 4 4 4 720 16 988 16
l164 0 -6 34 c-3 19 -3 37 0 40 4 3 113 6 244 6 l237 0 6 -72z m26 62 c0 -5
-4 -10 -10 -10 -5 0 -10 5 -10 10 0 6 5 10 10 10 6 0 10 -4 10 -10z m-5363
-42 c-3 -7 -5 -2 -5 12 0 14 2 19 5 13 2 -7 2 -19 0 -25z m3616 1 c4 -14 2
-19 -7 -16 -8 3 -13 -2 -13 -11 3 -73 -15 -1278 -19 -1314 -6 -45 -8 -48 -35
-48 -16 0 -29 4 -29 9 0 13 26 32 33 24 4 -3 7 8 7 26 0 20 -4 30 -11 26 -6
-4 -8 -13 -5 -21 7 -18 -11 -18 -21 0 -5 8 -19 19 -33 24 -25 9 -25 9 8 17 29
6 33 11 29 31 -2 13 1 25 7 28 7 3 4 9 -6 16 -10 6 -18 15 -18 20 0 6 8 10 18
10 14 0 17 10 19 50 1 31 -2 48 -7 45 -6 -4 -10 -16 -11 -28 0 -12 -3 -16 -6
-9 -8 21 -23 3 -23 -29 0 -16 -4 -29 -10 -29 -17 0 -5 64 18 89 27 30 28 52 1
77 -16 15 -24 16 -39 7 -15 -10 -19 -9 -24 3 -10 26 -7 124 4 124 6 0 10 -7
10 -16 0 -14 22 -44 33 -44 2 0 3 10 3 23 -1 15 4 22 17 21 9 -1 17 2 17 7 0
5 -4 9 -10 9 -5 0 -7 12 -5 28 3 15 7 51 9 80 l4 52 -62 1 c-33 0 -94 3 -133
5 l-73 5 0 -92 c0 -51 3 -89 7 -85 4 4 6 26 4 49 -3 49 17 112 28 87 3 -9 19
-15 36 -15 30 0 30 -1 30 -54 0 -34 5 -56 13 -59 6 -2 12 -14 12 -27 0 -13 5
-25 12 -27 7 -3 9 -14 4 -33 -6 -22 -9 -26 -16 -15 -13 21 -21 -4 -18 -55 3
-35 0 -40 -19 -43 -13 -2 -23 -9 -23 -16 0 -8 -3 -27 -6 -44 -5 -25 -2 -31 15
-37 26 -8 28 -25 3 -25 -30 0 -42 21 -42 72 0 36 -4 48 -15 48 -8 0 -15 9 -15
20 0 22 15 27 23 8 3 -7 6 -4 6 7 1 17 -35 52 -44 43 -2 -2 -6 -84 -10 -183
-7 -179 -15 -247 -15 -124 0 117 19 942 25 1095 l7 150 -274 -3 c-150 -2 -279
-5 -285 -8 -7 -2 -13 -1 -13 4 0 4 127 11 282 15 156 4 284 9 286 11 2 2 4 17
4 34 l1 31 177 0 c172 0 178 -1 183 -21z m-2756 -26 c-3 -10 -5 -4 -5 12 0 17
2 24 5 18 2 -7 2 -21 0 -30z m3206 20 c-7 -2 -19 -2 -25 0 -7 3 -2 5 12 5 14
0 19 -2 13 -5z m70 0 c-7 -2 -21 -2 -30 0 -10 3 -4 5 12 5 17 0 24 -2 18 -5z
m-1799 -12 c10 -16 -24 -21 -150 -21 -166 0 -163 18 4 23 70 1 130 4 134 5 4
1 9 -2 12 -7z m4399 2 c-13 -2 -33 -2 -45 0 -13 2 -3 4 22 4 25 0 35 -2 23 -4z
m-978 -13 c-4 -6 -66 -9 -158 -8 -107 1 -136 3 -97 8 91 11 262 11 255 0z
m234 6 c-9 -9 -187 -13 -200 -5 -9 5 29 9 95 9 60 0 107 -2 105 -4z m299 -1
c-8 -8 -268 -9 -275 -1 -4 3 58 6 137 6 79 0 141 -2 138 -5z m180 -2 c-10 -2
-26 -2 -35 0 -10 3 -2 5 17 5 19 0 27 -2 18 -5z m-3470 -10 c-32 -2 -86 -2
-120 0 -35 2 -9 3 57 3 66 0 94 -1 63 -3z m2233 -9 c17 -15 16 -17 -2 -35 -22
-22 -59 -25 -59 -5 0 7 -7 19 -15 26 -8 7 -12 16 -9 21 9 15 66 10 85 -7z m56
-6 c-3 -8 -6 -5 -6 6 -1 11 2 17 5 13 3 -3 4 -12 1 -19z m-2961 -138 c-4 -74
-9 -169 -11 -210 -3 -41 -9 -192 -15 -335 -13 -343 -24 -525 -28 -497 -2 16
-8 22 -18 18 -9 -3 -14 1 -14 12 0 17 -33 44 -60 48 -8 2 -16 8 -18 13 -2 6
-10 11 -17 11 -18 0 -24 55 -12 102 7 28 12 36 19 26 7 -10 11 -9 23 6 15 19
15 19 15 -4 0 -29 5 -24 14 13 4 19 3 26 -4 22 -6 -4 -10 9 -10 34 0 32 -4 41
-17 43 -10 0 -22 2 -28 3 -5 2 -25 3 -43 4 l-34 1 4 105 c3 90 1 105 -13 105
-13 0 -16 -14 -17 -77 -1 -43 -4 -105 -7 -138 -2 -33 -7 -107 -11 -165 -5
-106 -14 -148 -14 -71 0 24 4 107 10 185 5 77 14 240 19 361 6 121 13 280 17
353 l6 132 -83 2 -84 2 80 3 c56 3 82 8 88 18 6 12 33 14 139 13 l130 -3 -6
-135z m-2319 108 c-3 -8 -6 -5 -6 6 -1 11 2 17 5 13 3 -3 4 -12 1 -19z m2571
5 c-27 -2 -69 -2 -95 0 -27 2 -5 3 47 3 52 0 74 -1 48 -3z m-695 -10 c-7 -2
-19 -2 -25 0 -7 3 -2 5 12 5 14 0 19 -2 13 -5z m-1016 -40 c-3 -10 -5 -4 -5
12 0 17 2 24 5 18 2 -7 2 -21 0 -30z m-1152 0 c-3 -16 -9 -77 -15 -138 -6 -60
-13 -119 -17 -129 -4 -15 -2 -18 13 -12 17 7 17 6 0 -13 -14 -15 -23 -68 -43
-243 -36 -326 -37 -333 -45 -330 -5 1 -17 2 -28 2 -11 0 -20 6 -20 14 0 9 7
12 20 9 22 -6 43 28 22 35 -7 2 -10 7 -7 12 3 4 -4 6 -15 3 -25 -7 -26 12 -2
26 16 9 16 10 0 16 -14 6 -17 15 -12 44 5 34 3 38 -28 53 l-35 16 8 64 c18
152 19 178 4 178 -22 0 -18 17 5 23 15 4 20 14 20 36 0 28 -2 31 -25 25 -15
-4 -25 -2 -25 5 0 6 12 11 28 11 18 0 23 3 14 9 -11 7 -11 9 2 14 23 9 22 74
-1 80 -14 4 -14 5 3 6 20 1 22 9 30 89 4 48 8 90 10 95 1 4 2 12 3 17 0 6 32
10 71 10 l70 0 -5 -27z m-532 -70 c-37 -252 -56 -350 -69 -370 -20 -31 -17
-39 6 -18 12 11 26 15 37 11 13 -6 14 -9 4 -15 -7 -5 -13 -12 -12 -17 1 -27
-14 -62 -36 -83 -21 -20 -24 -30 -19 -60 3 -20 6 -42 6 -49 0 -7 5 -10 10 -7
20 12 9 -14 -12 -29 -27 -19 -40 -12 -32 20 4 14 1 31 -6 39 -10 12 -9 15 4
15 19 0 22 16 4 23 -10 3 -10 7 -1 19 7 8 10 18 6 22 -4 4 3 15 16 25 14 11
21 25 19 37 -4 16 -7 15 -17 -9 -6 -16 -20 -31 -30 -34 -14 -3 -22 -22 -32
-66 -8 -34 -13 -71 -11 -82 1 -15 0 -17 -7 -6 -7 11 -10 10 -14 -5 -9 -36 -7
32 3 113 6 43 13 96 15 118 10 81 35 271 40 300 3 17 7 56 10 87 9 98 16 108
78 108 l54 0 -14 -87z m734 70 c-20 -2 -52 -2 -70 0 -17 2 0 4 38 4 39 0 53
-2 32 -4z m100 -30 c-3 -10 -5 -4 -5 12 0 17 2 24 5 18 2 -7 2 -21 0 -30z
m-1271 10 c-7 -24 -33 -141 -41 -179 -5 -27 -3 -32 17 -39 l23 -7 -25 -8 c-14
-4 -21 -8 -16 -9 5 -1 3 -7 -3 -15 -6 -7 -25 -83 -42 -167 -17 -85 -35 -171
-39 -192 -8 -41 -20 -61 -20 -33 0 9 -5 14 -10 11 -6 -3 -10 -1 -10 4 0 6 -7
11 -15 11 -8 0 -15 -4 -15 -10 0 -5 -6 -10 -14 -10 -11 0 -11 9 -4 43 13 59
26 123 37 187 21 120 71 382 77 405 6 22 11 25 56 25 42 0 49 -3 44 -17z
m1122 0 c-10 -2 -28 -2 -40 0 -13 2 -5 4 17 4 22 1 32 -1 23 -4z m1009 -35
c-3 -7 -5 -2 -5 12 0 14 2 19 5 13 2 -7 2 -19 0 -25z m3328 22 c-3 -5 -16 -10
-28 -10 -18 0 -19 2 -7 10 20 13 43 13 35 0z m-5267 -7 c-27 -2 -69 -2 -95 0
-27 2 -5 3 47 3 52 0 74 -1 48 -3z m922 -29 c0 -2 -9 -4 -20 -4 -11 0 -20 4
-20 9 0 5 9 7 20 4 11 -3 20 -7 20 -9z m4860 -24 c0 -5 -7 -10 -15 -10 -8 0
-15 5 -15 10 0 6 7 10 15 10 8 0 15 -4 15 -10z m75 0 c3 -5 -1 -10 -9 -10 -9
0 -16 5 -16 10 0 6 4 10 9 10 6 0 13 -4 16 -10z m-4936 -25 c-24 -7 -51 -15
-60 -19 -11 -5 -18 -1 -22 13 -4 17 1 20 37 23 22 2 52 1 65 -1 21 -3 17 -6
-20 -16z m99 18 c-10 -2 -26 -2 -35 0 -10 3 -2 5 17 5 19 0 27 -2 18 -5z m69
-30 c-3 -10 -5 -4 -5 12 0 17 2 24 5 18 2 -7 2 -21 0 -30z m2953 17 c0 -11 -4
-20 -10 -20 -5 0 -10 9 -10 20 0 11 5 20 10 20 6 0 10 -9 10 -20z m1694 12 c2
-4 -4 -18 -13 -31 -21 -27 -33 -17 -20 17 8 22 24 29 33 14z m176 -7 c7 -9 10
-18 7 -21 -10 -10 -47 7 -47 22 0 19 24 18 40 -1z m-1940 -15 c0 -11 -7 -20
-15 -20 -13 0 -14 4 -5 20 6 11 13 20 15 20 3 0 5 -9 5 -20z m1710 -22 c0 -13
-20 -9 -36 7 -23 22 -6 40 17 19 10 -9 19 -21 19 -26z m-3733 -15 c-3 -10 -5
-2 -5 17 0 19 2 27 5 18 2 -10 2 -26 0 -35z m3893 27 c0 -5 -7 -10 -16 -10 -8
0 -12 5 -9 10 3 6 10 10 16 10 5 0 9 -4 9 -10z m-40 -10 c0 -5 -7 -10 -15 -10
-8 0 -15 5 -15 10 0 6 7 10 15 10 8 0 15 -4 15 -10z m-4820 -40 c-19 -11 -39
-19 -45 -19 -5 0 6 8 25 19 19 11 40 19 45 19 6 0 -6 -8 -25 -19z m1840 16 c0
-3 -4 -8 -10 -11 -5 -3 -10 -1 -10 4 0 6 5 11 10 11 6 0 10 -2 10 -4z m-1723
-43 c-3 -10 -5 -4 -5 12 0 17 2 24 5 18 2 -7 2 -21 0 -30z m593 27 c0 -5 -4
-10 -10 -10 -5 0 -10 5 -10 10 0 6 5 10 10 10 6 0 10 -4 10 -10z m30 -20 c0
-5 -4 -10 -10 -10 -5 0 -10 5 -10 10 0 6 5 10 10 10 6 0 10 -4 10 -10z m237
-37 c-3 -10 -5 -4 -5 12 0 17 2 24 5 18 2 -7 2 -21 0 -30z m-1082 7 c-3 -5
-11 -10 -16 -10 -6 0 -17 -7 -25 -15 -21 -20 -29 -19 -31 6 -1 15 1 18 10 11
8 -7 18 -6 31 4 23 16 40 19 31 4z m232 -67 c-3 -10 -5 -2 -5 17 0 19 2 27 5
18 2 -10 2 -26 0 -35z m860 -35 c-2 -13 -4 -3 -4 22 0 25 2 35 4 23 2 -13 2
-33 0 -45z m3541 45 c-10 -2 -26 -2 -35 0 -10 3 -2 5 17 5 19 0 27 -2 18 -5z
m-5675 -10 c-7 -2 -19 -2 -25 0 -7 3 -2 5 12 5 14 0 19 -2 13 -5z m702 -3 c-3
-5 -12 -7 -20 -3 -21 7 -19 13 6 13 11 0 18 -4 14 -10z m5163 3 c-21 -2 -57
-2 -80 0 -24 2 -7 4 37 4 44 0 63 -2 43 -4z m-5851 -19 c-3 -3 -12 -4 -19 -1
-8 3 -5 6 6 6 11 1 17 -2 13 -5z m2130 -101 c-3 -10 -5 -2 -5 17 0 19 2 27 5
18 2 -10 2 -26 0 -35z m10 -75 c-2 -13 -4 -5 -4 17 -1 22 1 32 4 23 2 -10 2
-28 0 -40z m5136 15 c-13 -2 -33 -2 -45 0 -13 2 -3 4 22 4 25 0 35 -2 23 -4z
m-6853 -13 c0 -5 -7 -7 -15 -4 -8 4 -15 8 -15 10 0 2 7 4 15 4 8 0 15 -4 15
-10z m1727 -102 c-2 -13 -4 -3 -4 22 0 25 2 35 4 23 2 -13 2 -33 0 -45z m713
-32 c0 -29 -4 -34 -27 -39 -16 -3 -29 -4 -31 -2 -7 7 42 74 56 75 1 0 2 -15 2
-34z m-1790 4 c0 -5 -5 -10 -11 -10 -5 0 -7 5 -4 10 3 6 8 10 11 10 2 0 4 -4
4 -10z m1087 -47 c-3 -10 -5 -2 -5 17 0 19 2 27 5 18 2 -10 2 -26 0 -35z
m1519 18 c-3 -5 -15 -7 -26 -4 -28 7 -25 13 6 13 14 0 23 -4 20 -9z m2642 2
c-27 -2 -69 -2 -95 0 -27 2 -5 3 47 3 52 0 74 -1 48 -3z m-5571 -52 c-1 -16
-5 -18 -19 -10 -10 5 -18 19 -18 30 0 16 3 18 19 9 11 -5 19 -19 18 -29z
m-387 5 c0 -2 -12 -12 -27 -21 l-28 -18 19 21 c17 20 36 29 36 18z m947 -28
c-3 -7 -5 -2 -5 12 0 14 2 19 5 13 2 -7 2 -19 0 -25z m860 -30 c-2 -13 -4 -5
-4 17 -1 22 1 32 4 23 2 -10 2 -28 0 -40z m-1431 -21 c-4 -18 -6 -44 -6 -59 0
-23 -4 -28 -24 -28 -20 0 -23 4 -19 23 3 12 13 28 22 36 12 10 13 15 4 18 -7
3 -13 18 -13 34 0 27 2 29 21 18 17 -9 20 -17 15 -42z m-539 21 c-3 -8 -6 -5
-6 6 -1 11 2 17 5 13 3 -3 4 -12 1 -19z m3123 -18 c0 -5 -4 -10 -10 -10 -5 0
-10 5 -10 10 0 6 5 10 10 10 6 0 10 -4 10 -10z m5398 3 c-10 -2 -26 -2 -35 0
-10 3 -2 5 17 5 19 0 27 -2 18 -5z m-8424 -33 c-7 -7 -18 -7 -35 0 -24 10 -23
10 4 5 17 -3 27 -1 27 6 0 7 3 9 7 6 4 -4 2 -12 -3 -17z m3056 10 c0 -5 -5
-10 -11 -10 -5 0 -7 5 -4 10 3 6 8 10 11 10 2 0 4 -4 4 -10z m-50 -10 c0 -5
-2 -10 -4 -10 -3 0 -8 5 -11 10 -3 6 -1 10 4 10 6 0 11 -4 11 -10z m1620 -5
c0 -9 -9 -15 -21 -15 -18 0 -19 2 -9 15 7 8 16 15 21 15 5 0 9 -7 9 -15z
m-2743 -17 c-3 -8 -6 -5 -6 6 -1 11 2 17 5 13 3 -3 4 -12 1 -19z m1138 -120
c4 -20 5 -48 1 -61 -4 -19 -11 -23 -34 -19 -28 4 -29 6 -29 63 0 32 4 59 9 59
4 0 11 0 16 0 4 1 10 -14 14 -32 4 -19 5 -3 3 37 -4 72 -2 67 20 -47z m-1988
55 c-3 -10 -5 -4 -5 12 0 17 2 24 5 18 2 -7 2 -21 0 -30z m860 -30 c-3 -10 -5
-4 -5 12 0 17 2 24 5 18 2 -7 2 -21 0 -30z m-2384 20 c-7 -2 -21 -2 -30 0 -10
3 -4 5 12 5 17 0 24 -2 18 -5z m7467 -63 c6 -11 7 -20 2 -20 -6 0 -12 9 -15
20 -3 11 -3 20 -1 20 2 0 8 -9 14 -20z m-5933 -12 c-3 -8 -6 -5 -6 6 -1 11 2
17 5 13 3 -3 4 -12 1 -19z m860 -35 c-3 -10 -5 -2 -5 17 0 19 2 27 5 18 2 -10
2 -26 0 -35z m-1765 18 c9 5 22 3 34 -6 17 -13 9 -14 -73 -13 -53 0 -93 5 -93
10 0 6 11 7 24 4 14 -3 27 -2 31 3 3 6 17 6 33 1 16 -4 36 -4 44 1z m4218 -36
c0 -14 -4 -25 -10 -25 -5 0 -10 11 -10 25 0 14 5 25 10 25 6 0 10 -11 10 -25z
m-4587 -2 c-7 -2 -21 -2 -30 0 -10 3 -4 5 12 5 17 0 24 -2 18 -5z m5981 -20
c-5 -5 -12 -12 -16 -18 -4 -6 -8 -2 -8 8 0 9 7 17 17 17 9 0 12 -3 7 -7z
m-3837 -35 c-3 -7 -5 -2 -5 12 0 14 2 19 5 13 2 -7 2 -19 0 -25z m1027 -18 c5
1 12 -3 15 -9 4 -6 32 -13 62 -16 89 -9 106 -13 126 -25 15 -9 10 -10 -27 -6
-25 3 -70 8 -100 11 -98 11 -100 12 -99 48 0 23 2 27 8 14 4 -10 11 -18 15
-17z m226 -10 c0 -5 -2 -10 -4 -10 -3 0 -8 5 -11 10 -3 6 -1 10 4 10 6 0 11
-4 11 -10z m1240 0 c0 -5 -2 -10 -4 -10 -3 0 -8 5 -11 10 -3 6 -1 10 4 10 6 0
11 -4 11 -10z m-134 -21 c3 -6 -1 -18 -9 -27 -12 -12 -19 -13 -30 -4 -10 9
-16 9 -25 0 -8 -8 -15 -8 -28 3 -15 12 -14 15 12 26 36 15 71 16 80 2z m-4251
-20 c5 -5 -5 -4 -23 2 -17 6 -32 13 -32 16 0 7 43 -8 55 -18z m8122 -11 c-3
-8 -6 -5 -6 6 -1 11 2 17 5 13 3 -3 4 -12 1 -19z m-3908 -52 c6 -4 8 -12 5
-18 -5 -7 -11 -5 -20 6 -8 11 -14 13 -19 7 -9 -16 -32 -13 -39 5 -5 13 0 15
28 11 19 -2 39 -8 45 -11z m111 -16 c0 -5 -4 -10 -10 -10 -5 0 -10 5 -10 10 0
6 5 10 10 10 6 0 10 -4 10 -10z m-373 -16 c-3 -3 -12 -4 -19 -1 -8 3 -5 6 6 6
11 1 17 -2 13 -5z m140 -20 c-3 -3 -12 -4 -19 -1 -8 3 -5 6 6 6 11 1 17 -2 13
-5z m40 0 c-3 -3 -12 -4 -19 -1 -8 3 -5 6 6 6 11 1 17 -2 13 -5z m150 -10 c-3
-3 -12 -4 -19 -1 -8 3 -5 6 6 6 11 1 17 -2 13 -5z m1550 -76 c-2 -13 -4 -5 -4
17 -1 22 1 32 4 23 2 -10 2 -28 0 -40z m2300 5 c-3 -10 -5 -4 -5 12 0 17 2 24
5 18 2 -7 2 -21 0 -30z m-1819 -74 c-3 -33 -4 -33 -8 8 -3 23 -2 39 3 34 5 -5
7 -24 5 -42z m-1045 14 c-7 -2 -19 -2 -25 0 -7 3 -2 5 12 5 14 0 19 -2 13 -5z
m569 -18 c3 -14 1 -28 -3 -31 -5 -3 -9 9 -9 25 0 38 6 40 12 6z m-409 -2 c-7
-2 -19 -2 -25 0 -7 3 -2 5 12 5 14 0 19 -2 13 -5z m2720 -63 c4 -40 2 -57 -3
-45 -8 19 -14 123 -6 114 2 -2 6 -33 9 -69z m-6463 56 c0 -3 -4 -8 -10 -11 -5
-3 -10 -1 -10 4 0 6 5 11 10 11 6 0 10 -2 10 -4z m157 -62 c-3 -3 -12 -4 -19
-1 -8 3 -5 6 6 6 11 1 17 -2 13 -5z m110 -20 c-3 -3 -12 -4 -19 -1 -8 3 -5 6
6 6 11 1 17 -2 13 -5z m1450 -10 c-3 -3 -12 -4 -19 -1 -8 3 -5 6 6 6 11 1 17
-2 13 -5z m361 -21 c-10 -2 -26 -2 -35 0 -10 3 -2 5 17 5 19 0 27 -2 18 -5z
m-1731 -9 c-3 -3 -12 -4 -19 -1 -8 3 -5 6 6 6 11 1 17 -2 13 -5z m50 -10 c-3
-3 -12 -4 -19 -1 -8 3 -5 6 6 6 11 1 17 -2 13 -5z m1906 -21 c-7 -2 -19 -2
-25 0 -7 3 -2 5 12 5 14 0 19 -2 13 -5z m-673 -40 c3 -3 -6 -3 -20 0 -14 4
-35 7 -47 7 -13 0 -23 4 -23 9 0 9 80 -5 90 -16z m475 -53 c3 -5 -3 -10 -14
-10 -12 0 -21 5 -21 10 0 6 6 10 14 10 8 0 18 -4 21 -10z m95 -10 c0 -10 -50
-19 -68 -13 -11 5 -11 7 -1 14 16 9 69 9 69 -1z m40 -16 c0 -2 -7 -4 -15 -4
-8 0 -15 4 -15 10 0 5 7 7 15 4 8 -4 15 -8 15 -10z m178 0 c23 -3 42 -11 42
-16 0 -7 -27 -8 -77 -3 -43 5 -86 8 -96 7 -16 -1 -16 2 -6 14 10 12 23 14 53
10 23 -4 60 -9 84 -12z m80 -14 c-13 -20 -28 -27 -28 -12 0 10 22 32 32 32 5
0 3 -9 -4 -20z m-438 0 c0 -5 -4 -10 -10 -10 -5 0 -10 5 -10 10 0 6 5 10 10
10 6 0 10 -4 10 -10z m540 -10 c0 -8 -49 -20 -81 -20 -26 0 -24 15 2 27 24 10
79 5 79 -7z m88 -15 c-2 -1 -21 -5 -43 -9 -38 -6 -39 -5 -16 8 13 7 33 11 43
8 10 -2 17 -6 16 -7z m-918 -34 c0 -4 -11 -6 -25 -3 -14 2 -25 6 -25 8 0 2 11
4 25 4 14 0 25 -4 25 -9z m136 -6 c17 -16 14 -18 -10 -9 -9 3 -16 10 -16 15 0
13 9 11 26 -6z m1124 4 c0 -14 -36 -15 -65 -2 -30 13 -30 13 18 11 26 -1 47
-5 47 -9z m258 -24 c6 -2 12 -9 12 -16 0 -16 -127 -4 -159 15 -8 5 -16 4 -20
-2 -8 -13 -55 -2 -58 13 -1 10 195 1 225 -10z m-521 -11 c-3 -3 -12 -4 -19 -1
-8 3 -5 6 6 6 11 1 17 -2 13 -5z m570 -11 c23 15 71 15 111 2 24 -9 47 -13 51
-11 4 3 25 0 47 -6 21 -6 49 -10 62 -9 15 2 22 -3 22 -14 0 -11 -6 -15 -17
-11 -44 14 -115 23 -152 19 -23 -2 -41 0 -41 6 0 5 -23 11 -52 13 -35 2 -53 8
-55 18 -4 12 -3 13 5 1 5 -7 14 -11 19 -8z m358 -46 c11 -11 8 -14 -16 -14
-15 0 -26 4 -23 8 2 4 -2 10 -8 12 -7 3 -3 6 10 6 13 1 29 -5 37 -12z m-1245
-1 c0 -3 -4 -8 -10 -11 -5 -3 -10 -1 -10 4 0 6 5 11 10 11 6 0 10 -2 10 -4z
m1351 -13 c5 -5 -2 -9 -16 -8 -13 0 -29 5 -35 11 -8 8 -4 11 16 8 14 -1 30 -6
35 -11z m-1316 -13 c3 -5 -1 -10 -9 -10 -9 0 -16 5 -16 10 0 6 4 10 9 10 6 0
13 -4 16 -10z m205 -30 c0 -5 -4 -10 -10 -10 -5 0 -10 5 -10 10 0 6 5 10 10
10 6 0 10 -4 10 -10z m255 -50 c3 -5 1 -10 -4 -10 -6 0 -11 5 -11 10 0 6 2 10
4 10 3 0 8 -4 11 -10z m1535 6 c0 -2 -7 -7 -16 -10 -8 -3 -12 -2 -9 4 6 10 25
14 25 6z m60 -10 c0 -2 -9 -6 -20 -9 -11 -3 -18 -1 -14 4 5 9 34 13 34 5z m90
-20 c-7 -7 -13 -7 -20 0 -6 6 -3 10 10 10 13 0 16 -4 10 -10z m-1727 -53 c-7
-2 -19 -2 -25 0 -7 3 -2 5 12 5 14 0 19 -2 13 -5z m2187 -213 c-20 -13 -40
-13 -40 0 0 6 12 10 28 10 21 0 24 -2 12 -10z m124 -16 c23 -9 20 -24 -4 -24
-11 0 -20 5 -20 10 0 6 -11 8 -25 4 -15 -4 -25 -2 -25 5 0 12 48 15 74 5z
m-377 -21 c-4 -3 -2 -12 4 -20 9 -10 8 -13 -4 -13 -19 0 -30 27 -14 34 18 7
21 7 14 -1z m593 -24 c0 -6 -4 -7 -10 -4 -5 3 -10 11 -10 16 0 6 5 7 10 4 6
-3 10 -11 10 -16z m-660 1 c0 -5 -4 -10 -10 -10 -5 0 -10 5 -10 10 0 6 5 10
10 10 6 0 10 -4 10 -10z m690 -10 c0 -5 -2 -10 -4 -10 -3 0 -8 5 -11 10 -3 6
-1 10 4 10 6 0 11 -4 11 -10z m131 -17 c7 -7 9 -16 6 -20 -4 -3 -9 2 -13 11
-6 17 -30 22 -36 8 -4 -11 -78 -3 -78 8 0 15 109 8 121 -7z m39 -13 c0 -5 -5
-10 -11 -10 -5 0 -7 5 -4 10 3 6 8 10 11 10 2 0 4 -4 4 -10z m114 -5 c8 -8 22
-12 30 -9 11 4 16 1 16 -10 0 -14 -7 -16 -37 -10 -43 8 -46 9 -49 29 -3 19 20
19 40 0z m-69 -5 c3 -5 -3 -10 -15 -10 -12 0 -18 5 -15 10 3 6 10 10 15 10 5
0 12 -4 15 -10z m175 -20 c11 -7 7 -10 -18 -10 -20 0 -31 4 -27 10 8 13 26 13
45 0z m200 -11 c0 -5 -4 -7 -10 -4 -5 3 -10 1 -10 -5 0 -6 10 -15 23 -20 12
-5 15 -9 7 -9 -8 0 -22 3 -30 9 -9 6 -17 5 -21 -2 -9 -14 -69 0 -69 16 0 7 16
13 37 14 21 2 39 5 42 7 9 9 31 5 31 -6z m-913 -25 c-3 -3 -12 -4 -19 -1 -8 3
-5 6 6 6 11 1 17 -2 13 -5z m1049 -8 c18 5 18 5 0 -10 -11 -9 -27 -16 -35 -16
-14 0 -14 1 -1 10 10 6 11 10 3 10 -7 0 -13 5 -13 11 0 8 4 8 14 0 7 -6 22 -9
32 -5z m-938 -13 c-10 -2 -28 -2 -40 0 -13 2 -5 4 17 4 22 1 32 -1 23 -4z
m875 0 c-7 -2 -19 -2 -25 0 -7 3 -2 5 12 5 14 0 19 -2 13 -5z m-770 -19 c15
-3 27 -10 27 -14 0 -10 -72 8 -85 22 -7 7 -4 8 10 5 11 -4 32 -9 48 -13z
m1140 -30 c-3 -9 -10 -11 -21 -5 -10 4 -23 6 -29 4 -7 -3 -13 0 -13 5 0 6 13
9 29 8 20 -1 27 2 24 11 -3 7 -10 10 -16 6 -6 -4 -7 -1 -2 7 6 10 11 9 21 -4
7 -10 10 -24 7 -32z m-83 16 c12 -8 9 -10 -13 -10 -16 0 -26 4 -22 10 8 12 16
12 35 0z m-983 -6 c-3 -3 -12 -4 -19 -1 -8 3 -5 6 6 6 11 1 17 -2 13 -5z
m1160 -19 c-4 -8 -11 -15 -17 -15 -14 0 -13 27 3 33 16 6 21 1 14 -18z m118
-5 c-10 -11 -25 -20 -34 -20 -11 1 -7 8 14 25 34 28 47 25 20 -5z m-75 0 c0
-5 -5 -10 -11 -10 -5 0 -7 5 -4 10 3 6 8 10 11 10 2 0 4 -4 4 -10z m176 -25
c-6 -18 -36 -20 -36 -4 0 16 34 40 38 28 2 -5 1 -16 -2 -24z m-489 19 c-3 -3
-12 -4 -19 -1 -8 3 -5 6 6 6 11 1 17 -2 13 -5z m-722 -14 c3 -6 -1 -7 -9 -4
-18 7 -21 14 -7 14 6 0 13 -4 16 -10z m70 -10 c8 -13 -5 -13 -25 0 -13 8 -13
10 2 10 9 0 20 -4 23 -10z m-455 -10 c0 -5 -5 -10 -11 -10 -5 0 -7 5 -4 10 3
6 8 10 11 10 2 0 4 -4 4 -10z m520 0 c24 -8 24 -8 -7 -9 -17 -1 -35 4 -38 9
-7 11 9 11 45 0z m-265 -30 c-3 -5 -13 -10 -21 -10 -8 0 -14 5 -14 10 0 6 9
10 21 10 11 0 17 -4 14 -10z m264 -41 c24 -13 48 -19 61 -16 31 8 50 -2 50
-25 0 -14 5 -18 15 -14 8 3 15 1 15 -4 0 -14 -63 -5 -68 9 -2 6 -19 11 -37 11
-19 0 -36 4 -40 9 -3 6 -13 10 -23 10 -37 0 -95 17 -92 26 2 11 5 11 33 0 13
-6 16 -3 11 8 -8 21 23 15 75 -14z m161 -41 c0 -6 -6 -5 -15 2 -8 7 -15 14
-15 16 0 2 7 1 15 -2 8 -4 15 -11 15 -16z m-7725 -17 c-8 -13 -35 -15 -35 -2
0 5 8 11 18 13 21 5 26 2 17 -11z m22 -3 c-3 -8 -6 -5 -6 6 -1 11 2 17 5 13 3
-3 4 -12 1 -19z m-180 -4 c3 -8 0 -21 -7 -27 -10 -9 -11 -9 -5 2 6 11 3 13
-13 9 -24 -7 -28 2 -10 20 16 16 27 15 35 -4z m78 2 c26 6 43 -12 26 -29 -8
-8 -11 -8 -11 2 0 7 -6 11 -14 8 -15 -6 -36 11 -35 28 0 5 3 4 6 -2 3 -8 14
-11 28 -7z m7873 -11 c-3 -3 -9 2 -12 12 -6 14 -5 15 5 6 7 -7 10 -15 7 -18z
m62 11 c0 -8 -6 -16 -12 -18 -17 -7 -38 1 -38 14 0 6 7 8 15 4 8 -3 15 -1 15
4 0 6 5 10 10 10 6 0 10 -6 10 -14z m108 -11 c22 -5 29 -11 21 -16 -8 -5 0
-13 26 -23 47 -20 52 -20 64 2 9 15 10 15 11 -5 0 -17 8 -25 33 -31 28 -7 73
-5 65 4 -3 3 -53 12 -75 13 -7 1 -13 6 -13 12 0 7 9 9 23 4 67 -20 168 -44
207 -50 69 -9 103 -23 123 -50 l18 -25 -26 10 c-14 5 -25 6 -25 2 0 -4 -4 -1
-8 5 -4 7 -17 14 -28 16 -12 1 -32 10 -45 18 -33 22 -89 31 -105 18 -8 -6 -19
-7 -31 -1 -10 5 -43 9 -73 10 -30 1 -57 7 -58 12 -2 6 -8 8 -12 5 -5 -3 -37 5
-72 18 -35 13 -69 22 -75 20 -7 -3 -13 0 -13 6 0 6 -8 8 -17 4 -17 -6 -17 -5
0 14 18 21 28 22 85 8z m482 -15 c0 -5 -7 -7 -15 -4 -8 4 -15 8 -15 10 0 2 7
4 15 4 8 0 15 -4 15 -10z m-8375 -39 c-3 -6 -11 -8 -17 -5 -6 4 -5 9 3 15 16
10 23 4 14 -10z m158 -8 c-7 -2 -21 -2 -30 0 -10 3 -4 5 12 5 17 0 24 -2 18
-5z m-43 -24 c0 -5 -7 -9 -15 -9 -8 0 -20 -9 -27 -20 -7 -11 -16 -20 -21 -20
-4 0 -5 5 -2 11 4 6 -1 16 -11 24 -18 12 -17 14 11 20 17 4 35 8 40 10 13 3
25 -4 25 -16z m134 -19 c-6 -6 -10 -3 -10 10 0 13 4 16 10 10 7 -7 7 -13 0
-20z m43 24 c-3 -3 -12 -4 -19 -1 -8 3 -5 6 6 6 11 1 17 -2 13 -5z m-90 -32
c-10 -2 -17 -7 -17 -12 0 -4 -9 -10 -20 -13 -11 -3 -20 0 -20 6 0 8 -3 8 -8
-1 -10 -14 -49 -24 -56 -14 -2 4 2 16 9 26 10 13 21 17 38 12 14 -3 32 0 43 8
15 11 22 12 33 3 12 -10 12 -12 -2 -15z m-197 4 c0 -3 -4 -8 -10 -11 -5 -3
-10 -1 -10 4 0 6 5 11 10 11 6 0 10 -2 10 -4z m8435 -26 c3 -4 -7 -7 -20 -7
-14 0 -25 5 -25 12 0 14 36 9 45 -5z m50 -18 c-3 -3 -11 0 -18 7 -9 10 -8 11
6 5 10 -3 15 -9 12 -12z m-8045 -24 c0 -4 -4 -8 -9 -8 -6 0 -12 4 -15 8 -3 5
1 9 9 9 8 0 15 -4 15 -9z"/>
<path d="M4297 4689 c4 -16 8 -17 14 -7 13 19 11 28 -5 28 -9 0 -12 -7 -9 -21z"/>
<path d="M3940 4656 c0 -9 5 -16 10 -16 6 0 10 4 10 9 0 6 -4 13 -10 16 -5 3
-10 -1 -10 -9z"/>
<path d="M3770 4594 c0 -8 5 -12 10 -9 6 3 10 10 10 16 0 5 -4 9 -10 9 -5 0
-10 -7 -10 -16z"/>
<path d="M3000 4435 c0 -8 4 -15 10 -15 5 0 7 7 4 15 -4 8 -8 15 -10 15 -2 0
-4 -7 -4 -15z"/>
<path d="M2886 4445 c-10 -7 -15 -18 -11 -24 10 -17 21 -13 33 14 13 28 6 31
-22 10z"/>
<path d="M2846 4405 c-3 -8 -1 -15 4 -15 6 0 10 7 10 15 0 8 -2 15 -4 15 -2 0
-6 -7 -10 -15z"/>
<path d="M2470 4345 c0 -8 2 -15 4 -15 2 0 6 7 10 15 3 8 1 15 -4 15 -6 0 -10
-7 -10 -15z"/>
<path d="M2166 4275 c-3 -8 -1 -15 4 -15 6 0 10 7 10 15 0 8 -2 15 -4 15 -2 0
-6 -7 -10 -15z"/>
<path d="M1920 4254 c0 -8 5 -12 10 -9 6 4 8 11 5 16 -9 14 -15 11 -15 -7z"/>
<path d="M2325 4136 c-9 -66 -3 -90 13 -60 16 30 20 106 5 111 -7 3 -14 -15
-18 -51z"/>
<path d="M4230 4180 c0 -33 7 -37 35 -16 23 16 14 46 -15 46 -16 0 -20 -7 -20
-30z"/>
<path d="M1776 4211 c-4 -7 -5 -15 -2 -18 9 -9 19 4 14 18 -4 11 -6 11 -12 0z"/>
<path d="M4092 4140 c-7 -19 -6 -26 5 -28 21 -5 25 2 14 29 l-9 24 -10 -25z"/>
<path d="M3950 4144 c0 -31 23 -28 28 4 2 15 -2 22 -12 22 -11 0 -16 -9 -16
-26z"/>
<path d="M3950 4075 c0 -23 2 -25 21 -15 23 13 21 33 -4 38 -12 3 -17 -4 -17
-23z"/>
<path d="M3565 4061 c-8 -27 -4 -33 14 -22 10 6 11 14 3 26 -9 17 -10 16 -17
-4z"/>
<path d="M2970 4011 c-15 -28 -12 -57 6 -72 14 -11 19 -10 35 10 20 24 23 39
13 65 -8 22 -41 20 -54 -3z"/>
<path d="M6478 3133 c6 -2 18 -2 25 0 6 3 1 5 -13 5 -14 0 -19 -2 -12 -5z"/>
<path d="M6462 3080 c7 -11 16 -20 20 -20 5 0 8 9 8 20 0 13 -7 20 -20 20 -18
0 -19 -2 -8 -20z"/>
<path d="M6841 2434 c0 -11 3 -14 6 -6 3 7 2 16 -1 19 -3 4 -6 -2 -5 -13z"/>
<path d="M4990 2990 c-8 -5 -41 -10 -72 -10 -63 0 -71 -10 -38 -45 19 -20 19
-24 5 -51 -8 -16 -15 -41 -15 -56 0 -15 -7 -53 -15 -84 -13 -51 -13 -60 0 -81
9 -13 11 -23 5 -23 -5 0 -10 -10 -10 -22 0 -29 -23 -8 -25 24 -2 33 -25 35
-25 1 0 -21 -3 -24 -9 -13 -6 8 -8 17 -5 21 2 4 -3 9 -11 12 -20 8 -27 -21
-24 -107 l3 -73 75 -7 c41 -3 98 -6 126 -6 l53 0 1 48 c0 26 1 82 2 125 0 42
4 77 10 77 5 0 8 10 8 23 -1 12 4 54 10 92 27 168 27 165 -5 165 -16 0 -36 -5
-44 -10z"/>
<path d="M4837 2393 c-11 -10 -8 -43 3 -43 6 0 10 11 10 25 0 26 -2 29 -13 18z"/>
<path d="M5030 1915 c0 -14 5 -25 10 -25 6 0 10 11 10 25 0 14 -4 25 -10 25
-5 0 -10 -11 -10 -25z"/>
<path d="M3786 2958 c-3 -13 -8 -39 -12 -58 -11 -56 -13 -129 -4 -135 10 -6
18 38 26 138 6 73 0 104 -10 55z"/>
<path d="M3758 2744 c-5 -4 -8 -16 -8 -28 0 -14 3 -17 11 -9 6 6 9 19 7 28 -1
9 -6 13 -10 9z"/>
<path d="M3556 2624 c-3 -26 -6 -61 -6 -78 1 -26 2 -28 11 -13 6 9 14 15 20
12 5 -3 6 1 2 10 -5 13 -8 14 -15 3 -5 -8 -6 12 -2 50 8 72 0 85 -10 16z"/>
<path d="M3690 2653 c0 -10 -7 -26 -15 -36 -13 -18 -11 -47 4 -47 8 0 31 67
31 89 0 18 -20 12 -20 -6z"/>
<path d="M3736 2595 c4 -8 8 -15 10 -15 2 0 4 7 4 15 0 8 -4 15 -10 15 -5 0
-7 -7 -4 -15z"/>
<path d="M3612 2488 c7 -19 65 -21 90 -4 21 15 20 16 -36 16 -42 0 -57 -3 -54
-12z"/>
<path d="M3640 2104 c0 -11 6 -28 13 -38 13 -18 14 -18 21 -1 4 12 0 26 -14
39 l-20 20 0 -20z"/>
<path d="M577 2608 c-8 -29 -4 -32 11 -8 6 10 8 21 3 24 -5 3 -11 -4 -14 -16z"/>
<path d="M557 2536 c-5 -15 -6 -31 -3 -34 8 -8 18 25 14 45 -3 13 -6 10 -11
-11z"/>
<path d="M172 2755 c0 -16 2 -22 5 -12 2 9 2 23 0 30 -3 6 -5 -1 -5 -18z"/>
<path d="M115 2480 c-3 -5 -1 -10 4 -10 6 0 11 5 11 10 0 6 -2 10 -4 10 -3 0
-8 -4 -11 -10z"/>
<path d="M1916 8925 c4 -8 8 -15 10 -15 2 0 4 7 4 15 0 8 -4 15 -10 15 -5 0
-7 -7 -4 -15z"/>
<path d="M9 8119 c-5 -24 -4 -51 3 -55 4 -3 8 -10 8 -15 0 -6 -4 -7 -10 -4 -5
3 -10 -3 -10 -14 0 -11 5 -23 10 -26 8 -5 7 -11 -1 -21 -9 -11 -8 -18 2 -31
10 -12 10 -15 1 -9 -10 6 -12 -32 -12 -191 1 -169 4 -201 18 -218 26 -33 50
-38 58 -13 6 21 7 21 20 3 8 -10 22 -20 31 -21 9 -2 32 -20 50 -41 29 -32 41
-38 74 -38 32 0 39 3 39 20 0 19 1 19 18 1 13 -14 14 -19 4 -23 -10 -4 -8 -11
9 -29 12 -13 28 -24 35 -24 12 0 4 35 -22 105 l-7 20 20 -20 c11 -11 19 -23
17 -27 -3 -4 6 -26 18 -49 26 -50 36 -38 13 17 -19 46 -10 58 16 22 12 -17 26
-25 35 -21 10 4 17 -2 21 -16 3 -11 9 -18 15 -15 5 3 21 -2 36 -11 15 -9 5 4
-23 29 -27 25 -53 46 -57 46 -14 0 -103 61 -103 70 0 15 -33 50 -47 50 -7 0
-29 10 -48 22 -37 23 -40 25 -67 27 -17 2 -16 3 1 16 11 8 18 16 15 18 -2 1
-16 9 -31 17 -16 7 -28 17 -28 22 0 13 58 9 63 -4 2 -7 8 -10 12 -6 13 12 -5
27 -40 34 -19 3 -35 10 -35 15 0 12 27 11 35 -1 3 -5 11 -10 16 -10 6 0 7 4 4
10 -4 6 2 7 17 2 13 -5 43 -7 68 -6 37 1 49 -3 67 -24 19 -23 54 -26 52 -5 -1
14 -114 63 -145 63 -37 0 -95 23 -114 44 -11 14 -9 16 8 16 11 0 22 -4 24 -10
2 -5 18 -14 36 -19 27 -8 32 -7 32 7 0 10 -18 25 -46 37 -25 11 -55 30 -66 42
-12 12 -25 20 -31 16 -6 -3 -7 -2 -4 4 3 5 -1 22 -9 37 -7 16 -14 50 -14 77 0
47 -13 72 -24 47 -3 -7 -3 -1 0 13 3 16 0 30 -10 38 -9 8 -16 12 -17 10z m89
-309 c7 -11 11 -20 9 -20 -2 0 -12 9 -22 20 -10 11 -14 20 -9 20 5 0 15 -9 22
-20z m-52 -5 c-20 -15 -36 -19 -36 -10 0 5 38 23 50 24 3 0 -4 -6 -14 -14z
m119 -53 c-3 -3 -11 0 -18 7 -9 10 -8 11 6 5 10 -3 15 -9 12 -12z m-50 -2 c3
-5 1 -10 -4 -10 -6 0 -11 5 -11 10 0 6 2 10 4 10 3 0 8 -4 11 -10z m109 -162
c6 -8 28 -20 48 -27 20 -7 42 -19 49 -27 11 -13 9 -14 -16 -8 -22 5 -26 4 -20
-7 5 -8 5 -11 1 -7 -4 3 -6 9 -4 13 2 3 -22 18 -52 33 -30 15 -56 32 -57 38
-5 16 38 10 51 -8z m29 -101 c4 3 9 -2 13 -11 10 -26 -3 -31 -26 -11 -22 20
-28 44 -7 26 8 -6 17 -8 20 -4z m86 -57 c0 -13 -1 -13 -8 0 -5 8 -12 26 -15
40 l-7 25 15 -25 c9 -14 15 -32 15 -40z"/>
<path d="M430 7672 c38 -35 39 -35 58 -23 16 10 -20 36 -64 47 l-29 7 35 -31z"/>
<path d="M217 7646 c-5 -13 10 -36 24 -36 9 0 -1 39 -11 45 -4 3 -10 -1 -13
-9z"/>
<path d="M1 7464 c-1 -64 1 -72 19 -77 12 -3 20 -14 20 -26 0 -23 16 -29 23
-8 2 6 3 2 1 -9 -3 -16 4 -26 29 -37 51 -23 77 -30 77 -18 0 6 -6 11 -14 11
-8 0 -17 4 -20 9 -4 5 13 7 36 5 24 -2 36 -1 28 2 -69 29 -99 45 -110 59 -8
10 -9 15 -1 15 6 0 11 7 11 15 0 11 -8 13 -30 9 -20 -4 -30 -2 -30 5 0 7 4 10
9 6 5 -3 12 -1 16 5 3 5 -3 10 -14 10 -11 0 -23 5 -26 10 -3 6 4 10 17 10 l23
1 -25 14 c-14 7 -28 24 -31 37 -4 13 -7 -7 -8 -48z"/>
<path d="M441 7384 c0 -11 3 -14 6 -6 3 7 2 16 -1 19 -3 4 -6 -2 -5 -13z"/>
<path d="M0 7290 c0 -22 5 -40 10 -40 6 0 10 -8 10 -17 0 -16 -2 -16 -11 -3
-8 12 -9 11 -6 -5 2 -11 9 -19 17 -17 10 2 11 0 2 -11 -7 -8 -9 -27 -6 -46 8
-37 21 -30 26 14 2 20 11 33 25 40 13 5 23 13 23 18 0 4 -10 12 -23 17 -12 5
-16 9 -9 9 21 1 13 31 -14 56 -37 34 -44 31 -44 -15z"/>
<path d="M130 7198 c0 -22 -4 -29 -14 -25 -10 4 -12 0 -9 -14 7 -27 20 -24 37
9 8 15 16 24 17 20 1 -5 3 -12 4 -18 1 -5 3 -15 4 -21 1 -8 6 -8 16 1 8 7 15
8 15 3 0 -5 19 -25 42 -43 42 -34 43 -29 3 25 -12 17 -24 38 -28 48 -4 10 -11
15 -17 12 -5 -3 -10 -2 -10 2 0 5 -13 14 -30 20 -29 11 -30 10 -30 -19z"/>
<path d="M387 1953 c6 -15 29 -18 37 -4 3 5 -5 11 -18 13 -17 4 -23 1 -19 -9z"/>
<path d="M1888 1733 c6 -2 18 -2 25 0 6 3 1 5 -13 5 -14 0 -19 -2 -12 -5z"/>
<path d="M2930 1485 c0 -10 9 -14 25 -13 14 1 25 8 25 15 0 7 -11 13 -25 13
-15 0 -25 -6 -25 -15z"/>
<path d="M3026 1472 c-3 -6 12 -12 37 -16 125 -17 147 -18 147 -7 0 6 -7 12
-15 12 -56 5 -75 7 -116 14 -29 4 -49 4 -53 -3z"/>
<path d="M3460 1410 c0 -5 5 -10 10 -10 6 0 10 5 10 10 0 6 -4 10 -10 10 -5 0
-10 -4 -10 -10z"/>
<path d="M6340 879 c0 -5 5 -7 10 -4 6 3 10 8 10 11 0 2 -4 4 -10 4 -5 0 -10
-5 -10 -11z"/>
<path d="M7848 573 c7 -3 16 -2 19 1 4 3 -2 6 -13 5 -11 0 -14 -3 -6 -6z"/>
<path d="M8225 560 c-3 -6 1 -7 9 -4 18 7 21 14 7 14 -6 0 -13 -4 -16 -10z"/>
<path d="M8428 493 c7 -3 16 -2 19 1 4 3 -2 6 -13 5 -11 0 -14 -3 -6 -6z"/>
<path d="M8800 466 c0 -2 7 -7 16 -10 8 -3 12 -2 9 4 -6 10 -25 14 -25 6z"/>
<path d="M8993 423 c9 -2 23 -2 30 0 6 3 -1 5 -18 5 -16 0 -22 -2 -12 -5z"/>
<path d="M8843 413 c9 -2 25 -2 35 0 9 3 1 5 -18 5 -19 0 -27 -2 -17 -5z"/>
</g>
</svg>
