<?xml version="1.0" standalone="no"?>
<!DOCTYPE svg PUBLIC "-//W3C//DTD SVG 20010904//EN"
 "http://www.w3.org/TR/2001/REC-SVG-20010904/DTD/svg10.dtd">
<svg version="1.0" xmlns="http://www.w3.org/2000/svg"
 width="225.000000pt" height="225.000000pt" viewBox="0 0 225.000000 225.000000"
 preserveAspectRatio="xMidYMid meet">

<g transform="translate(0.000000,225.000000) scale(0.100000,-0.100000)"
fill="#000000" stroke="none">
<path d="M0 1125 l0 -1125 1125 0 1125 0 0 489 c0 269 -5 503 -10 520 -5 19
-5 31 1 31 5 0 9 9 9 20 0 15 -7 20 -29 20 -21 0 -30 6 -34 22 -8 28 -3 34 33
41 17 4 30 13 30 21 0 16 -40 10 -53 -8 -5 -7 -7 -3 -5 9 2 12 11 19 21 19 9
-1 14 2 11 7 -3 5 2 9 10 9 14 0 16 56 16 525 l0 525 -1125 0 -1125 0 0 -1125z
m703 -13 c3 -4 3 -19 0 -34 -4 -23 -10 -27 -54 -30 l-49 -3 0 32 c0 25 5 33
23 36 39 7 76 7 80 -1z m350 -22 c3 6 4 5 3 -2 -4 -20 -36 -22 -36 -3 0 14 3
15 14 6 10 -8 16 -9 19 -1z m37 0 c0 -5 -4 -10 -10 -10 -5 0 -10 5 -10 10 0 6
5 10 10 10 6 0 10 -4 10 -10z m-160 -15 c0 -1 -13 -5 -30 -7 -32 -5 -42 8 -12
14 16 4 42 -1 42 -7z m30 5 c0 -5 -5 -10 -11 -10 -5 0 -7 5 -4 10 3 6 8 10 11
10 2 0 4 -4 4 -10z m-150 -10 c0 -5 -5 -10 -11 -10 -5 0 -7 5 -4 10 3 6 8 10
11 10 2 0 4 -4 4 -10z m30 0 c0 -5 -4 -10 -10 -10 -5 0 -10 5 -10 10 0 6 5 10
10 10 6 0 10 -4 10 -10z m-595 -110 c0 -8 -10 -16 -22 -18 -22 -3 -32 16 -16
32 12 11 38 2 38 -14z m752 -12 c-3 -8 -6 -5 -6 6 -1 11 2 17 5 13 3 -3 4 -12
1 -19z m0 -40 c-3 -8 -6 -5 -6 6 -1 11 2 17 5 13 3 -3 4 -12 1 -19z m82 -31
c-1 -17 -2 -18 -6 -4 -2 9 -9 17 -14 17 -6 0 -7 5 -4 10 10 16 25 1 24 -23z
m337 5 c-11 -12 -18 -13 -29 -4 -17 14 -27 6 -28 -22 -1 -15 -3 -12 -8 9 -4
17 -6 32 -5 35 1 3 21 4 44 2 38 -4 40 -6 26 -20z m-1086 1 c0 -29 -15 -43
-41 -41 -19 2 -24 8 -26 30 -2 26 1 28 32 28 27 0 35 -4 35 -17z m156 -7 c-3
-11 -6 -24 -6 -28 0 -5 -14 -8 -32 -8 l-31 0 23 25 c13 14 20 25 16 25 -4 0
-17 -11 -29 -24 -12 -14 -39 -27 -61 -31 -37 -6 -38 -5 -32 17 3 13 6 29 6 36
0 9 20 12 76 11 72 -2 75 -3 70 -23z m49 -5 c0 -16 -6 -27 -17 -29 -14 -3 -18
3 -18 27 0 22 4 29 18 28 12 -1 18 -9 17 -26z m375 25 c0 -2 -7 -6 -15 -10 -8
-3 -15 -1 -15 4 0 6 7 10 15 10 8 0 15 -2 15 -4z m230 -18 c0 -17 -3 -19 -9
-9 -5 7 -15 17 -22 22 -10 6 -8 9 9 9 16 0 22 -6 22 -22z m180 16 c0 -2 -8
-12 -19 -23 -13 -13 -23 -16 -34 -9 -9 4 -34 9 -55 11 -66 4 -36 22 38 24 39
1 70 0 70 -3z m157 0 c-3 -3 -12 -4 -19 -1 -8 3 -5 6 6 6 11 1 17 -2 13 -5z
m-507 -14 c0 -5 -9 -10 -20 -10 -11 0 -20 5 -20 10 0 6 9 10 20 10 11 0 20 -4
20 -10z m573 1 c4 10 6 9 6 -3 1 -12 -6 -18 -19 -18 -20 0 -26 11 -13 23 4 4
10 2 14 -4 5 -8 8 -7 12 2z m-762 -58 c13 -16 12 -17 -3 -4 -10 7 -18 15 -18
17 0 8 8 3 21 -13z m689 -4 c0 -5 -4 -9 -8 -9 -5 0 -9 7 -9 15 0 8 4 12 9 9 4
-3 8 -9 8 -15z m-463 -61 c-3 -8 -6 -5 -6 6 -1 11 2 17 5 13 3 -3 4 -12 1 -19z
m-927 2 c0 -5 -4 -10 -10 -10 -5 0 -10 5 -10 10 0 6 5 10 10 10 6 0 10 -4 10
-10z m1377 -6 c-3 -3 -12 -4 -19 -1 -8 3 -5 6 6 6 11 1 17 -2 13 -5z"/>
</g>
</svg>
