<?xml version="1.0" standalone="no"?>
<!DOCTYPE svg PUBLIC "-//W3C//DTD SVG 20010904//EN" "http://www.w3.org/TR/2001/REC-SVG-20010904/DTD/svg10.dtd">
<svg xmlns="http://www.w3.org/2000/svg" version="1.0" width="225.000000pt" height="225.000000pt" viewBox="0 0 225.000000 225.000000" preserveAspectRatio="xMidYMid meet">
<metadata>
Created by potrace 1.16, written by Peter Selinger 2001-2019
<meta name="Producer" content="Online-Convert"/></metadata>
<g transform="translate(0.000000,225.000000) scale(0.100000,-0.100000)" fill="#000000" stroke="none">
<path d="M0 1125 l0 -1125 1125 0 1125 0 0 489 c0 269 -5 503 -10 520 -5 19 -5 31 1 31 5 0 9 9 9 20 0 15 -7 20 -29 20 -21 0 -30 6 -34 22 -8 28 -3 34 33 41 17 4 30 13 30 21 0 16 -40 10 -53 -8 -5 -7 -7 -3 -5 9 2 12 11 19 21 19 9 -1 14 2 11 7 -3 5 2 9 10 9 14 0 16 56 16 525 l0 525 -1125 0 -1125 0 0 -1125z"/>
</g>
</svg>
